<svg width="31" height="31" viewBox="0 0 31 31" fill="none" xmlns="http://www.w3.org/2000/svg">
<path fill-rule="evenodd" clip-rule="evenodd" d="M9.36328 12.9167C9.36328 11.2895 10.0097 9.72889 11.1603 8.57827C12.3109 7.42766 13.8715 6.78125 15.4987 6.78125C17.1259 6.78125 18.6865 7.42766 19.8371 8.57827C20.9877 9.72889 21.6341 11.2895 21.6341 12.9167C21.6341 14.5439 20.9877 16.1044 19.8371 17.2551C18.6865 18.4057 17.1259 19.0521 15.4987 19.0521C13.8715 19.0521 12.3109 18.4057 11.1603 17.2551C10.0097 16.1044 9.36328 14.5439 9.36328 12.9167ZM15.4987 8.71875C14.3853 8.71875 13.3176 9.16103 12.5303 9.94829C11.7431 10.7356 11.3008 11.8033 11.3008 12.9167C11.3008 14.03 11.7431 15.0978 12.5303 15.885C13.3176 16.6723 14.3853 17.1146 15.4987 17.1146C16.6121 17.1146 17.6798 16.6723 18.4671 15.885C19.2543 15.0978 19.6966 14.03 19.6966 12.9167C19.6966 11.8033 19.2543 10.7356 18.4671 9.94829C17.6798 9.16103 16.6121 8.71875 15.4987 8.71875Z" fill="black"/>
<path fill-rule="evenodd" clip-rule="evenodd" d="M4.55089 11.44C4.77225 8.76231 5.99215 6.26571 7.96851 4.44559C9.94487 2.62547 12.5333 1.61485 15.2201 1.61426H15.7781C18.4648 1.61485 21.0532 2.62547 23.0296 4.44559C25.006 6.26571 26.2259 8.76231 26.4472 11.44C26.6935 14.4229 25.7719 17.3848 23.8768 19.7015L17.6858 27.2719C17.4209 27.5959 17.0873 27.857 16.7091 28.0363C16.3309 28.2155 15.9176 28.3085 15.4991 28.3085C15.0805 28.3085 14.6672 28.2155 14.289 28.0363C13.9108 27.857 13.5772 27.5959 13.3123 27.2719L7.12131 19.7015C5.22622 17.3848 4.30466 14.4229 4.55089 11.44ZM15.2201 3.55176C13.0199 3.55269 10.9004 4.38055 9.28202 5.87114C7.66367 7.36172 6.66468 9.40613 6.48322 11.5988C6.27821 14.0813 7.0451 16.5464 8.62222 18.4744L14.8132 26.0461C14.8964 26.148 15.0012 26.2301 15.1201 26.2864C15.2389 26.3428 15.3688 26.372 15.5003 26.372C15.6319 26.372 15.7618 26.3428 15.8806 26.2864C15.9995 26.2301 16.1043 26.148 16.1875 26.0461L22.3785 18.4744C23.9547 16.546 24.7206 14.0809 24.5149 11.5988C24.3334 9.40591 23.3342 7.36132 21.7156 5.8707C20.097 4.38008 17.9772 3.55236 15.7768 3.55176H15.2201Z" fill="black"/>
</svg>
