<svg width="31" height="31" viewBox="0 0 31 31" fill="none" xmlns="http://www.w3.org/2000/svg">
<path d="M11.0759 21.9486H26.2172C26.7226 21.9486 27.1638 21.5334 27.1638 20.9754C27.1638 20.4174 26.7226 20.0022 26.2172 20.0022H11.2962C10.5566 20.0022 10.1027 19.483 9.98591 18.6919L9.77832 17.3296H26.2426C28.137 17.3296 29.1101 16.1615 29.3825 14.3065L30.4204 7.44278C30.4483 7.27983 30.4657 7.11527 30.4725 6.9501C30.4725 6.32733 30.0053 5.89887 29.2917 5.89887H8.10487L7.85798 4.25144C7.72844 3.25225 7.3653 2.74573 6.04227 2.74573H1.48748C0.968784 2.74573 0.527588 3.20076 0.527588 3.72001C0.527588 4.25144 0.968784 4.70592 1.48803 4.70592H5.87287L7.94877 18.9515C8.22168 20.7938 9.1943 21.9486 11.0759 21.9486ZM28.2665 7.85796L27.3465 14.0729C27.2424 14.8772 26.8145 15.3705 26.0489 15.3705L9.49378 15.3832L8.39052 7.85796H28.2665ZM12.1011 28.2543C12.3778 28.2566 12.6521 28.2038 12.9082 28.099C13.1642 27.9941 13.3968 27.8394 13.5925 27.6438C13.7881 27.4481 13.9429 27.2155 14.0477 26.9595C14.1525 26.7034 14.2053 26.4291 14.203 26.1524C14.2043 25.876 14.1507 25.6021 14.0456 25.3465C13.9404 25.091 13.7856 24.8588 13.5902 24.6633C13.3947 24.4679 13.1625 24.3131 12.9069 24.2079C12.6514 24.1027 12.3775 24.0492 12.1011 24.0505C10.9209 24.0505 9.98646 24.9849 9.98646 26.1524C9.98646 27.3332 10.9209 28.2543 12.1011 28.2543ZM24.2321 28.2543C25.4128 28.2543 26.3467 27.3332 26.3467 26.1524C26.3467 24.9844 25.4128 24.0505 24.2321 24.0505C23.0646 24.0505 22.1174 24.9849 22.1174 26.1524C22.1174 27.3332 23.0646 28.2543 24.2321 28.2543Z" fill="#CC9933"/>
</svg>
