<svg width="71" height="70" viewBox="0 0 71 70" fill="none" xmlns="http://www.w3.org/2000/svg">
<path d="M69.1489 6.41638H66.6462L64.1134 3.49402C62.1899 1.27319 59.3394 0 56.2914 0H51.4943C48.4463 0 45.5957 1.2732 43.6722 3.49317L41.1394 6.41638H38.6367C38.1531 6.41638 37.7617 6.80774 37.7617 7.29138V14.139C36.0845 13.1046 34.2807 12.3396 32.363 11.892V0.875C32.363 0.391361 31.9717 0 31.488 0H24.8444C24.3607 0 23.9694 0.391361 23.9694 0.875V11.892C22.9138 12.1389 21.898 12.4782 20.9265 12.8955V6.12414C20.9265 2.74718 18.1793 0 14.8024 0H6.12416C2.74719 0 0 2.74719 0 6.12414V69.125C0 69.6086 0.391361 70 0.875 70H6.10535C6.58899 70 6.98035 69.6086 6.98035 69.125V7.59131C6.98035 7.10767 7.37427 6.71374 7.85791 6.71374H13.0686C13.5522 6.71374 13.9462 7.10767 13.9462 7.59131V18.1813C11.3588 21.3635 9.8241 25.4058 9.8241 29.7474V59.5325C9.8241 60.0161 10.2155 60.4075 10.6991 60.4075H14.6058V63.1779C13.1563 63.3371 12.0201 64.5543 12.0201 66.0454V69.125C12.0201 69.6086 12.4115 70 12.8951 70H18.0665C18.5502 70 18.9415 69.6086 18.9415 69.125V66.0454C18.9415 64.5543 17.8053 63.3371 16.3558 63.1779V60.4075H40.7601V63.1779C39.3106 63.3371 38.1744 64.5543 38.1744 66.0454V69.125C38.1744 69.6086 38.5658 70 39.0494 70H44.2208C44.7045 70 45.0958 69.6086 45.0958 69.125V66.0454C45.0958 64.5541 43.9599 63.3367 42.5101 63.1778V49.5948L46.4237 57.7056C46.5698 58.0081 46.8757 58.2003 47.2115 58.2003H48.7941V62.5779C48.7941 63.0615 49.1854 63.4529 49.6691 63.4529H57.9252C58.4088 63.4529 58.8002 63.0615 58.8002 62.5779V58.2003H60.3827C60.7185 58.2003 61.0244 58.0081 61.1705 57.7056L65.2755 49.1981V63.1779C63.826 63.3371 62.6898 64.5543 62.6898 66.0454V69.125C62.6898 69.6086 63.0812 70 63.5648 70H68.7362C69.2198 70 69.6112 69.6086 69.6112 69.125V66.0454C69.6112 64.5543 68.475 63.3371 67.0255 63.1779V46.8125H69.1489C69.6326 46.8125 70.0239 46.4211 70.0239 45.9375V7.29138C70.0239 6.80774 69.6326 6.41638 69.1489 6.41638ZM17.1915 66.0454V68.25H13.7701V66.0454C13.7701 65.4114 14.2862 64.8961 14.9203 64.8961H16.0414C16.6754 64.8961 17.1915 65.4114 17.1915 66.0454ZM44.995 4.63904C46.5861 2.80359 48.9547 1.75 51.4943 1.75H56.2914C58.8309 1.75 61.1996 2.80359 62.7906 4.63989L64.3299 6.41638H43.4554L44.995 4.63904ZM25.0101 13.46C25.422 13.3805 25.7194 13.0199 25.7194 12.6003V1.75H30.613V12.6003C30.613 13.0199 30.9104 13.3805 31.3223 13.46C33.6166 13.9009 35.7545 14.8075 37.6763 16.1533C37.7028 16.172 37.734 16.1754 37.7617 16.1907V28.3512H11.636C12.2536 21.0179 17.6856 14.87 25.0101 13.46ZM13.0686 4.96374H7.85791C6.40869 4.96374 5.23035 6.14209 5.23035 7.59131V68.25H1.75V6.12414C1.75 3.71192 3.71192 1.75 6.12414 1.75H14.8024C17.2146 1.75 19.1765 3.71192 19.1765 6.12414V13.7738C17.9135 14.4859 16.7454 15.3364 15.6962 16.3122V7.5913C15.6962 6.14209 14.5178 4.96374 13.0686 4.96374ZM11.5741 58.6575V30.1012H37.7617V45.9375C37.7617 46.4211 38.1531 46.8125 38.6367 46.8125H40.7601V58.6575H11.5741ZM43.3458 66.0454V68.25H39.9244V66.0454C39.9244 65.4114 40.4405 64.8961 41.0746 64.8961H42.1965C42.8306 64.8961 43.3458 65.4114 43.3458 66.0454ZM57.0502 61.7029H50.5441V58.2003H57.0502V61.7029ZM59.8333 56.4503H47.761L43.1103 46.8125H64.484L59.8333 56.4503ZM67.8612 66.0454V68.25H64.4398V66.0454C64.4398 65.4114 64.9559 64.8961 65.59 64.8961H66.7111C67.3451 64.8961 67.8612 65.4114 67.8612 66.0454ZM68.2739 45.0625H39.5117V8.16638H68.2739V45.0625Z" fill="#CC9933"/>
<path d="M60.7395 30.0781H47.0454C46.5618 30.0781 46.1704 30.4695 46.1704 30.9531V39.0469C46.1704 39.5305 46.5618 39.9219 47.0454 39.9219H60.7395C61.2231 39.9219 61.6145 39.5305 61.6145 39.0469V30.9531C61.6145 30.4695 61.2231 30.0781 60.7395 30.0781ZM59.8645 38.1719H47.9204V31.8281H59.8645V38.1719Z" fill="#CC9933"/>
</svg>
