<svg width="75" height="80" viewBox="0 0 75 80" fill="none" xmlns="http://www.w3.org/2000/svg">
<path d="M0.87182 21.6342C1.4483 21.579 9.73784 19.1528 24.0734 18.7075C23.6523 19.2495 24.1045 20.1194 24.7914 20.0883C25.5301 20.002 26.0514 19.2322 26.6141 18.8387C28.5955 19.3392 30.6495 19.3082 32.4859 18.7973C40.9157 19.2495 47.395 20.7822 55.1548 20.8581C60.4295 20.8581 63.5435 20.8539 73.54 18.2822C74.655 17.975 74.2373 16.3042 73.1016 16.57C66.2563 18.3306 64.2747 18.4383 60.1292 18.8353C62.7044 16.9712 64.0126 15.2279 64.0057 13.6572C64.0299 11.2926 60.6538 9.43204 58.9796 10.9992C57.806 11.8864 57.8474 13.816 58.99 14.7204C59.8806 15.4592 61.0059 14.1129 60.1257 13.3673C59.8496 13.1049 59.7426 12.6976 60.0774 12.3835C60.2569 12.2385 60.6401 11.9347 61.4789 12.525C63.3913 13.8437 61.2959 15.7353 59.028 17.451C57.6644 18.4314 56.0317 18.9906 54.3022 19.0734C47.992 18.9284 42.6133 17.8099 35.8203 17.2749C37.1389 16.3428 38.3955 15.2451 37.2528 14.2648C38.7718 11.8208 39.7521 8.84513 38.0675 8.28936C37.9156 4.72341 35.1713 0.587999 35.0401 0.391196C34.7777 -0.0023293 34.2496 -0.116249 33.8457 0.12884C33.6834 0.2255 30.3212 2.31399 28.9887 5.40353C27.5043 5.15845 26.5757 6.41494 26.0649 8.80034C23.8832 8.97294 22.4368 12.5941 24.5943 16.9194C10.1924 17.2784 0.808566 19.853 0.667172 19.884C-0.340789 20.1119 -0.153417 21.6446 0.87182 21.6342ZM25.4202 11.7138C25.5652 11.2132 25.7861 10.8887 25.9518 10.7127C26.7872 11.0855 27.5294 10.8197 27.6674 10.0534C27.8607 8.2756 28.3129 7.48159 28.5753 7.21586C29.0137 7.94767 30.0872 7.94423 30.3081 7.05362C30.7741 4.84434 32.9075 2.99402 34.0467 2.14486C35.0788 3.90195 36.6495 7.17442 36.2422 9.3457C36.1317 9.86004 36.5494 10.3813 37.0741 10.3917C36.867 11.2995 36.3112 12.7735 35.0823 14.2407C34.7474 14.6238 34.851 15.2624 35.2791 15.5351C34.0777 16.4637 31.4922 17.7616 28.2094 17.344C28.6133 16.9332 28.9895 16.5224 29.3416 16.1117C29.8111 16.1669 30.9502 16.229 31.6095 16.1531C32.0963 16.1048 32.4484 15.6733 32.4035 15.1865C32.2758 14.2337 31.3852 14.4029 30.6706 14.4201C31.0987 13.8229 31.4922 13.2361 31.8305 12.6665C32.4001 12.4352 35.0167 11.9554 34.3297 10.5849C34.0777 10.1327 33.4943 10.0084 33.0628 10.2846C34.2745 7.54023 34.4574 5.56575 34.4713 5.40695C34.5438 4.25052 32.8212 4.10551 32.7108 5.26541C32.7073 5.29993 32.5209 7.17441 31.3196 9.79788C31.3541 8.39295 29.5591 8.2376 29.5108 9.61147C29.5729 10.4365 29.9492 11.4272 30.1735 11.9484C29.9112 12.3834 29.6143 12.8253 29.2967 13.2775C29.169 12.6078 29.1587 11.9347 28.2922 11.9208C26.7906 12.0968 27.6778 14.1576 28.0437 14.8964C27.5604 15.466 27.0184 16.0356 26.4316 16.6052C25.0785 14.1197 25.2027 12.4904 25.4271 11.7172L25.4202 11.7138Z" fill="#CC9933"/>
<path d="M74.6735 21.1667C74.5457 20.6937 74.059 20.4141 73.5895 20.5419C61.5286 23.7902 57.7822 23.7102 51.6245 23.403C45.7182 23.0612 40.3714 22.074 33.7913 21.4975C22.7033 20.4654 15.2841 21.6173 7.98644 23.1984C7.96228 23.2053 7.93466 23.2053 7.9105 23.2156C3.80611 24.1097 1.20332 24.8726 1.13421 24.8933C0.16761 25.1694 0.392037 26.64 1.38621 26.6227C1.87984 26.5709 3.84398 25.8978 8.06237 24.9899C8.88395 25.4317 9.63644 25.8908 10.3441 26.3638C8.07616 31.452 10.03 35.2698 12.3531 35.1974C13.1264 37.5068 14.1965 38.6564 15.6429 38.2421C17.5657 41.3454 20.8416 42.9333 21.4388 43.0127C21.7599 43.0127 22.0671 42.8367 22.2259 42.5363C22.3329 42.3258 24.5905 37.9072 24.3385 34.3482C25.9471 33.6026 24.6353 30.7616 22.8507 28.504C24.8942 26.5087 17.1998 22.8772 11.7734 25.1763C11.4178 24.9312 11.0484 24.6861 10.6653 24.4479C17.9041 23.0084 23.8498 22.3501 33.6325 23.258C38.8588 23.7413 42.4837 24.2936 47.064 24.7976C46.1906 30.8145 44.7511 35.0566 43.4498 37.881C39.8079 31.5431 28.8138 34.8984 30.8428 42.3858C25.4715 42.2719 21.4949 47.9125 25.3127 52.4275C23.345 53.5942 22.2335 55.4583 22.2715 57.5329C22.2715 58.8723 22.7099 60.0839 23.4935 61.085C21.3463 63.7845 22.1541 67.5022 24.9054 69.4009C21.16 73.4052 24.8053 79.6466 30.0661 79.5017C34.1326 79.5431 37.5155 76.2707 36.9114 72.4941C39.5004 72.3733 41.9409 70.668 42.5968 68.3724C48.1338 68.5416 50.816 63.5051 48.517 59.3975C52.3625 59.0454 55.2 55.1964 53.8399 51.5752C60.3814 47.8953 55.7834 38.6748 48.5066 40.1285C49.839 37.3772 50.8643 34.1048 51.5754 30.3387C51.8101 30.5769 52.0483 30.8082 52.2934 31.0291C51.6824 35.1335 55.2207 40.218 56.8708 38.5959C58.2239 39.1724 60.7474 40.101 61.4136 38.5821C63.9543 38.1092 66.5399 35.9448 66.8678 35.6617C67.2268 35.3545 67.2786 34.816 66.9886 34.4432C66.9023 34.3362 65.1383 32.12 62.7841 31.3364C62.7807 31.0637 62.684 30.7806 62.4976 30.5286C62.1766 30.0937 61.4862 29.5897 60.0156 29.4481C59.3252 27.7359 56.5705 26.973 53.1599 29.4205C52.7422 29.0201 52.3349 28.5989 51.9379 28.1502C52.0794 27.194 52.2072 26.2102 52.3142 25.1952C58.3379 25.4023 62.3217 25.4064 74.0485 22.2513C74.518 22.1235 74.8012 21.6396 74.6735 21.1667ZM20.731 27.465C20.3374 27.7895 20.3167 28.4316 20.6964 28.7802C22.0841 30.0954 22.8021 31.4969 23.1128 32.3772C22.595 32.4462 22.2395 33.0123 22.4052 33.5094C23.0576 35.6185 21.8701 39.0498 21.0416 40.9104C19.8127 40.1959 17.4827 38.601 16.7681 36.4573C16.4505 35.6012 15.3838 35.7152 15.0282 36.4919C14.7383 36.2571 14.1963 35.5218 13.8028 33.7786C13.575 33.033 12.8121 32.8534 12.0216 33.3195C11.8386 33.1607 11.5832 32.8638 11.3795 32.384C11.0654 31.6384 10.7616 30.0401 11.8179 27.42C12.3116 27.7997 12.7741 28.1829 13.2091 28.573C12.9329 29.3048 12.1251 31.5935 13.6509 31.7143C14.1618 31.7178 14.5761 31.2725 14.5312 30.7616C14.5105 30.5061 14.5519 30.2162 14.6209 29.9366C15.1629 30.5061 15.6392 31.0723 16.0673 31.6246C15.9085 32.3599 14.9972 34.804 16.592 34.8661C17.2548 34.8454 17.5033 34.2206 17.4515 33.6372C18.9359 36.095 19.3398 37.928 19.3501 37.9729C19.5987 39.112 21.2901 38.7703 21.083 37.6311C21.0519 37.4654 20.648 35.5288 19.1361 32.9467C20.22 33.4611 20.9864 31.8455 19.8886 31.345C19.0153 30.9722 18.1764 30.803 17.6448 30.7236C17.1995 30.1368 16.6955 29.5361 16.1328 28.9287C16.7438 28.9632 17.4515 28.7319 17.4343 28.007C17.4274 27.5202 17.0097 27.1232 16.5368 27.137C15.8153 27.1474 15.0421 27.2786 14.5553 27.3787C14.2239 27.0784 13.8753 26.7815 13.5128 26.4881C16.7197 25.7045 19.4261 26.6918 20.7275 27.4754L20.731 27.465ZM57.4752 29.6614C57.7652 29.696 57.9827 29.7754 58.1276 29.8513C57.9723 30.521 58.3831 31.1596 59.0355 31.1734C60.0159 31.1596 60.5337 31.3011 60.8098 31.4185C60.3818 31.9363 60.7546 32.7993 61.4312 32.8373C62.881 32.9685 64.248 34.1214 65.0006 34.8809C63.7993 35.7646 61.773 36.9969 60.3093 36.8968C59.864 36.8657 59.5429 37.173 59.4256 37.5665C58.7697 37.4664 57.7789 37.1833 56.7537 36.5102C56.4361 36.3031 56.0219 36.3134 55.725 36.5516L55.687 36.5827C55.0208 35.8302 54.1371 34.408 54.0232 32.4437C55.2694 33.3516 56.5845 34.0904 57.9688 34.6461C58.4106 34.8256 58.9354 34.6116 59.1183 34.1559C59.3013 33.7037 59.0803 33.1893 58.6281 33.0064C57.1852 32.4265 55.8182 31.6187 54.5375 30.6073C55.8803 29.7167 56.8607 29.5856 57.4786 29.6546L57.4752 29.6614ZM38.1061 60.6815C37.6642 60.8126 37.1878 60.8851 36.6597 60.892C35.7622 60.9335 34.7818 60.6953 33.9533 60.2638C33.9499 60.2603 33.943 60.2569 33.9395 60.2569C33.584 59.922 33.1904 59.6286 32.7659 59.3835C31.3851 58.127 31.1192 55.8141 32.2032 54.2781C32.3413 54.0537 32.5208 53.8362 32.7555 53.6084C33.6185 52.7212 34.9544 52.1412 36.2697 52.0964C38.0371 51.9894 39.7147 52.7074 40.7538 54.033C40.771 54.0572 40.7849 54.0813 40.8021 54.1055C42.6454 56.546 41.137 59.9014 38.1095 60.6815L38.1061 60.6815ZM40.2566 51.2991C39.1486 50.6467 37.8506 50.3084 36.5078 50.3291C32.8936 47.7538 35.0649 42.4896 39.6974 42.5276C40.9332 42.5586 41.8446 42.8762 42.6627 43.3353C43.2565 43.6978 43.7121 44.1397 44.0504 44.6678C45.6936 47.4466 44.3542 50.7779 40.2566 51.3025V51.2991ZM37.388 36.2866C40.3602 36.2832 42.7973 38.5753 42.3796 41.2472C41.6063 40.9676 40.7295 40.788 39.7285 40.757C37.2292 40.7397 35.0649 41.941 33.8704 43.8465C30.5462 41.0608 33.0868 36.1934 37.388 36.2832V36.2866ZM26.0102 46.8602C26.9043 45.0928 29.1723 43.6879 31.8407 44.2954C32.2032 44.7546 32.6381 45.1619 33.1352 45.5209C32.6312 47.3815 33.0558 49.2283 34.2778 50.6712C33.4252 50.9474 32.6312 51.3789 31.9684 51.9312C30.4841 51.265 28.727 51.1752 27.07 51.6654C25.5718 50.3123 25.1645 48.5449 26.0137 46.8603L26.0102 46.8602ZM26.2519 53.9196C27.612 53.136 29.2344 52.8978 30.7085 53.3327C29.1861 55.5766 29.5555 58.8697 31.5749 60.6958C31.7233 60.8443 31.8821 60.9858 32.0444 61.117C31.1917 61.6451 30.2286 61.8971 29.1378 61.9144C27.7915 61.9247 26.2691 61.3931 25.3164 60.4646C25.313 60.4611 25.3095 60.4576 25.3026 60.4542C24.4914 59.6775 24.0357 58.6627 24.0357 57.52C24.0116 56.0702 24.8159 54.7584 26.2519 53.923L26.2519 53.9196ZM24.7503 62.3286C25.6754 63.0294 26.8526 63.4644 28.1401 63.6127C28.7166 63.6956 29.2931 63.7197 29.8661 63.6645C29.6831 64.0477 29.5416 64.4481 29.4484 64.8693V64.8727C29.3414 65.3595 29.3207 65.8497 29.3414 66.3399C29.3448 66.5125 29.3517 66.6816 29.369 66.8508C29.3794 66.9164 29.3897 66.9854 29.4001 67.051C29.4967 67.7069 29.7004 68.3351 30.0145 68.9116C29.3655 69.0117 28.6786 69.0014 28.0296 68.884C25.3544 68.2903 22.6652 65.5632 24.7468 62.3286L24.7503 62.3286ZM30.1561 77.7352C25.8515 77.8043 23.4765 73.0474 26.4867 70.2927C26.5419 70.3134 26.6006 70.3203 26.6558 70.341C28.085 70.883 29.6867 70.9486 31.1987 70.4619C32.2135 71.5354 33.66 72.1672 35.1167 72.4537C35.7484 75.2498 33.2733 77.7456 30.1561 77.7387L30.1561 77.7352ZM37.6608 70.6069C36.6355 70.8451 35.5861 70.7967 34.6368 70.5102C33.6633 70.1926 32.7658 69.6369 32.1237 68.8429C31.5852 68.2043 31.2469 67.4621 31.1295 66.6992C31.1261 66.6785 31.1226 66.6578 31.1192 66.6336C31.1123 66.5749 31.1088 66.5163 31.1054 66.4576C31.0329 65.491 31.3677 64.414 31.958 63.6442C31.9718 63.6269 31.9856 63.6131 31.996 63.5959C32.0616 63.5096 32.1341 63.4302 32.2066 63.3508C32.6864 62.8537 33.2974 62.4602 34.0051 62.2047C34.8715 62.5154 35.7932 62.6845 36.7115 62.65C37.25 62.6431 37.7643 62.5603 38.2855 62.4532C40.2463 63.3956 41.3992 65.3805 41.0506 67.2791C41.0471 67.2929 41.0229 67.4275 41.0195 67.4413C40.6812 69.0327 39.4558 70.1857 37.6572 70.5999L37.6608 70.6069ZM47.5097 63.1437C47.1922 64.9387 45.6387 66.5992 42.884 66.6129C42.8979 64.6936 41.9382 62.8675 40.3123 61.6352C41.7829 60.7618 42.8184 59.3983 43.1981 57.8173C46.4775 58.3454 47.9515 61.0966 47.5131 63.1437H47.5097ZM52.3011 54.3446C51.8144 56.5263 49.5223 57.9312 47.0161 57.6412C46.1807 56.9612 45.0346 56.3744 43.7505 56.1223C43.5952 55.9704 43.4467 55.8013 43.3052 55.6149C43.174 54.7933 42.853 53.9994 42.3801 53.2951C42.3628 53.0742 42.3662 52.8498 42.3904 52.6289C44.396 51.8971 45.625 50.4611 46.1703 48.8938C49.1494 48.1896 53.1571 51.0927 52.3045 54.3445L52.3011 54.3446ZM51.1689 41.9001C55.5322 42.8287 56.6714 48.0723 52.9985 50.0227C51.5417 47.9791 48.8733 46.8399 46.4914 47.0713C46.526 46.0287 46.2532 44.9862 45.7182 44.0232C46.8021 42.1625 48.9838 41.4272 51.1689 41.9001ZM45.9253 41.2201C45.4006 41.5895 44.938 42.0382 44.5549 42.556C44.3857 42.4007 44.2097 42.2522 44.0164 42.1141C44.1613 41.548 44.2407 40.9474 44.1821 40.3536C45.732 37.4988 47.7238 32.5866 48.8181 24.9753C49.398 25.0271 49.9745 25.072 50.551 25.1099C49.6638 33.443 47.5857 38.4416 45.9218 41.22L45.9253 41.2201Z" fill="#CC9933"/>
</svg>
