<svg width="70" height="70" viewBox="0 0 70 70" fill="none" xmlns="http://www.w3.org/2000/svg">
<path d="M54.8068 44.4089L51.2829 40.8849C50.5134 40.1146 49.2594 40.1138 48.4891 40.8849L44.9647 44.4093C44.1953 45.1792 44.1953 46.4323 44.9652 47.2026L48.4895 50.727C48.8745 51.1115 49.3799 51.3038 49.8858 51.3038C50.3916 51.3038 50.8979 51.1115 51.2829 50.7266L54.8068 47.2026C55.5771 46.4323 55.5771 45.1792 54.8068 44.4089ZM53.5695 45.9653L50.046 49.4888C49.9588 49.5751 49.8127 49.5756 49.7264 49.4893L46.2029 45.9658C46.1162 45.879 46.1162 45.7325 46.2025 45.6462L49.7264 42.1223C49.7696 42.0791 49.8277 42.0573 49.8858 42.0573C49.9443 42.0573 50.0024 42.0791 50.0456 42.1223L53.5695 45.6462C53.6558 45.7329 53.6558 45.8786 53.5695 45.9653Z" fill="#CC9933"/>
<path d="M64.4288 50.3707C64.2272 49.8819 63.8486 49.5017 63.3629 49.2992L58.7623 47.3838C58.2756 47.1809 57.739 47.1805 57.2507 47.3817C56.7619 47.5834 56.3817 47.9619 56.1791 48.4477L54.2638 53.0483C54.0613 53.5345 54.0604 54.0711 54.2617 54.5599C54.4633 55.0486 54.8419 55.4289 55.3276 55.6314L59.9282 57.5467C60.1718 57.6484 60.4285 57.6993 60.6853 57.6993C60.9404 57.6993 61.1963 57.6493 61.4398 57.5489C61.9286 57.3472 62.3088 56.9687 62.5114 56.4829L64.4271 51.8819C64.6292 51.3961 64.6301 50.8595 64.4288 50.3707ZM62.8117 51.209L60.8955 55.8104C60.8652 55.8835 60.8058 55.9172 60.7729 55.9305C60.7404 55.9441 60.6751 55.9621 60.6011 55.9313L56.0001 54.0156C55.9266 53.9852 55.8933 53.9258 55.8796 53.8934C55.8664 53.8605 55.8485 53.7947 55.8792 53.7212L57.795 49.1202C57.8253 49.0467 57.8847 49.0134 57.9172 48.9997C57.9368 48.992 57.968 48.9822 58.0056 48.9822C58.0308 48.9822 58.0595 48.9869 58.0894 48.9993L62.6904 50.915C62.7634 50.9454 62.7972 51.0047 62.8104 51.0376C62.8241 51.0701 62.8421 51.1359 62.8117 51.209Z" fill="#CC9933"/>
<path d="M0.875 70H69.125C69.6082 70 70 69.6082 70 69.125V60.4075C70 59.9243 69.6082 59.5325 69.125 59.5325H67.2929L69.9962 30.0162C70.0188 29.7714 69.9372 29.5283 69.7714 29.3463C69.6057 29.1647 69.3711 29.0613 69.125 29.0613H39.8928C39.6467 29.0613 39.4122 29.1647 39.2464 29.3463C39.0806 29.5283 38.999 29.7714 39.0217 30.0162L41.7254 59.5325H33.6637C35.2022 58.2082 36.1818 56.2514 36.1818 54.0667V29.9495C36.1818 29.9458 36.1813 29.9422 36.1813 29.9385L36.1818 29.9363L36.1811 29.9329C36.1737 21.7028 30.7234 14.6339 22.8363 12.5034V10.0782C23.9865 10.0499 24.9149 9.11044 24.9149 7.95361V2.12982C24.9149 0.955322 23.9591 0 22.7846 0H13.3972C12.2227 0 11.2673 0.955322 11.2673 2.12982V7.95361C11.2673 9.11044 12.1953 10.0499 13.3455 10.0782V12.5034C5.45834 14.6339 0.00806431 21.7028 0.000694275 29.9329L0 29.9363L0.000480652 29.9385C0.000480652 29.9422 0 29.9458 0 29.9495V54.0667C0 56.2514 0.979515 58.2082 2.51808 59.5325H0.875C0.391785 59.5325 0 59.9243 0 60.4075V69.125C0 69.6082 0.391785 70 0.875 70ZM68.1663 30.8113L67.6248 36.7235H41.3931L40.8516 30.8113H68.1663ZM41.5534 38.4735H67.4645L65.5359 59.5325H43.4823L41.5534 38.4735ZM1.75 30.8113H34.4318V49.0376H1.75V30.8113ZM13.0173 7.95361V2.12982C13.0173 1.92047 13.1878 1.75 13.3972 1.75H22.7846C22.9944 1.75 23.1649 1.92047 23.1649 2.12982V7.95361C23.1649 8.16296 22.9944 8.33344 22.7846 8.33344H13.3972C13.1878 8.33344 13.0173 8.16296 13.0173 7.95361ZM14.4166 14.0393C14.8139 13.9479 15.0955 13.5941 15.0955 13.1865V10.0834H21.0863V13.1865C21.0863 13.5941 21.3679 13.9479 21.7652 14.0393C28.9318 15.6885 34.0073 21.7975 34.3941 29.0613H1.7877C2.17447 21.7975 7.24999 15.6885 14.4166 14.0393ZM1.75 54.0667V50.7876H34.4318V54.0667C34.4318 57.0805 31.9802 59.5325 28.9664 59.5325H7.21533C4.20154 59.5325 1.75 57.0805 1.75 54.0667ZM1.75 61.2825H7.21533H28.9664H68.25V68.25H1.75V61.2825Z" fill="#CC9933"/>
<rect x="10.5" width="14.875" height="10.5" rx="3" fill="#E51717"/>
</svg>
