<svg width="30" height="30" viewBox="0 0 30 30" fill="none" xmlns="http://www.w3.org/2000/svg">
<path d="M21.25 10.625C22.2855 10.625 23.125 9.78553 23.125 8.75C23.125 7.71447 22.2855 6.875 21.25 6.875C20.2145 6.875 19.375 7.71447 19.375 8.75C19.375 9.78553 20.2145 10.625 21.25 10.625Z" fill="#CC9933"/>
<path d="M20 3.75067C23.45 3.75067 26.25 6.55067 26.25 10.0007V20.0007C26.25 23.4507 23.45 26.2507 20 26.2507H10C6.55 26.2507 3.75 23.4507 3.75 20.0007V10.0007C3.75 6.55067 6.55 3.75067 10 3.75067H15H20Z" stroke="#CC9933" stroke-width="2" stroke-linecap="round" stroke-linejoin="round"/>
<path d="M15 10.0007C17.7625 10.0007 20 12.2382 20 15.0007C20 17.7632 17.7625 20.0007 15 20.0007C12.2375 20.0007 10 17.7632 10 15.0007C10 12.2382 12.2375 10.0007 15 10.0007Z" stroke="#CC9933" stroke-width="2" stroke-linecap="round" stroke-linejoin="round"/>
</svg>
