<svg width="35" height="35" viewBox="0 0 35 35" fill="none" xmlns="http://www.w3.org/2000/svg">
<path d="M26.8336 30.2602H26.4981C22.7189 29.8506 19.088 28.5621 15.8961 26.4977C12.9307 24.6079 10.4125 22.0947 8.51689 19.1331C6.44821 15.9325 5.1595 12.2911 4.75439 8.50182C4.70795 8.04988 4.7538 7.59322 4.88917 7.15953C5.02454 6.72584 5.2466 6.32418 5.54189 5.97891C5.82909 5.62901 6.18358 5.3403 6.58438 5.12988C6.98518 4.91947 7.42412 4.79162 7.87522 4.75391H11.6669C12.4881 4.75473 13.2819 5.04917 13.9051 5.58405C14.5282 6.11892 14.9395 6.85898 15.0648 7.67057C15.2034 8.71308 15.4628 9.73592 15.8377 10.7185C16.0659 11.3359 16.113 12.0057 15.9734 12.6489C15.8339 13.2922 15.5136 13.8823 15.0502 14.3497L14.1606 15.2393C15.5612 17.4505 17.44 19.3192 19.6586 20.7081L20.5481 19.8331C21.0156 19.3697 21.6057 19.0494 22.2489 18.9099C22.8922 18.7703 23.562 18.8174 24.1794 19.0456C25.1631 19.4169 26.1855 19.6761 27.2273 19.8185C28.0528 19.9426 28.8045 20.3637 29.3416 21.0027C29.8786 21.6418 30.1639 22.4548 30.144 23.2893V26.7893C30.144 27.6996 29.7834 28.5728 29.1411 29.2178C28.4988 29.8628 27.6271 30.2271 26.7169 30.231L26.8336 30.2602ZM11.6669 6.92682H8.18147C8.01033 6.93814 7.84327 6.98403 7.69037 7.06174C7.53747 7.13944 7.40191 7.24734 7.29189 7.37891C7.18481 7.50215 7.10376 7.64579 7.05364 7.80118C7.00351 7.95656 6.98534 8.12048 7.00022 8.28307C7.35544 11.7197 8.50905 15.0257 10.369 17.9372C12.0849 20.6303 14.3696 22.9151 17.0627 24.631C19.9754 26.512 23.2854 27.6902 26.7315 28.0727C26.9106 28.0819 27.0897 28.0543 27.2578 27.9916C27.4258 27.9289 27.5792 27.8324 27.7086 27.7081C27.9408 27.47 28.0715 27.1511 28.0731 26.8185V23.3331C28.0797 23.0262 27.9735 22.7275 27.7746 22.4937C27.5757 22.2599 27.298 22.1071 26.994 22.0643C25.7891 21.9026 24.6057 21.6091 23.4648 21.1893C23.24 21.1053 22.996 21.0867 22.7612 21.1358C22.5263 21.1848 22.3101 21.2994 22.1377 21.4664L20.6794 22.9247C20.5086 23.0913 20.2886 23.1983 20.0521 23.2298C19.8157 23.2613 19.5754 23.2157 19.3669 23.0997C16.2551 21.3413 13.6793 18.7706 11.9148 15.6622C11.794 15.4551 11.7457 15.2137 11.7774 14.976C11.809 14.7383 11.919 14.518 12.0898 14.3497L13.5481 12.8914C13.7154 12.7223 13.8304 12.5086 13.8796 12.2759C13.9287 12.0431 13.9098 11.8012 13.8252 11.5789C13.4043 10.4384 13.1108 9.2548 12.9502 8.04974C12.914 7.73659 12.7626 7.44812 12.5253 7.24053C12.2881 7.03295 11.9821 6.92112 11.6669 6.92682Z" fill="#0D0D0D"/>
</svg>
