<svg width="59" height="187" viewBox="0 0 59 187" fill="none" xmlns="http://www.w3.org/2000/svg">
<path d="M34.144 102.582C34.144 103.542 33.994 104.382 33.694 105.102C33.382 105.822 32.944 106.38 32.38 106.776C31.804 107.16 31.138 107.352 30.382 107.352L29.986 107.352C29.926 107.352 29.878 107.334 29.842 107.298C29.794 107.25 29.77 107.196 29.77 107.136L29.77 105.084C29.77 105.024 29.794 104.976 29.842 104.94C29.878 104.892 29.926 104.868 29.986 104.868L30.256 104.868C30.736 104.868 31.144 104.646 31.48 104.202C31.804 103.758 31.966 103.158 31.966 102.402C31.966 101.766 31.834 101.292 31.57 100.98C31.294 100.668 30.958 100.512 30.562 100.512C30.274 100.512 30.034 100.608 29.842 100.8C29.638 100.992 29.464 101.256 29.32 101.592C29.164 101.916 28.954 102.438 28.69 103.158C28.414 103.962 28.132 104.646 27.844 105.21C27.556 105.762 27.166 106.23 26.674 106.614C26.17 106.986 25.552 107.172 24.82 107.172C24.1 107.172 23.47 106.986 22.93 106.614C22.39 106.242 21.976 105.726 21.688 105.066C21.4 104.406 21.256 103.644 21.256 102.78C21.256 101.868 21.418 101.058 21.742 100.35C22.066 99.63 22.522 99.072 23.11 98.676C23.686 98.268 24.358 98.064 25.126 98.064L25.396 98.064C25.456 98.064 25.51 98.088 25.558 98.136C25.594 98.172 25.612 98.22 25.612 98.28L25.612 100.35C25.612 100.41 25.594 100.464 25.558 100.512C25.51 100.548 25.456 100.566 25.396 100.566L25.252 100.566C24.748 100.566 24.322 100.776 23.974 101.196C23.614 101.604 23.434 102.168 23.434 102.888C23.434 103.452 23.554 103.896 23.794 104.22C24.034 104.532 24.364 104.688 24.784 104.688C25.084 104.688 25.336 104.598 25.54 104.418C25.744 104.226 25.93 103.95 26.098 103.59C26.254 103.218 26.47 102.648 26.746 101.88C27.058 101.028 27.334 100.362 27.574 99.882C27.814 99.39 28.174 98.952 28.654 98.568C29.122 98.172 29.734 97.974 30.49 97.974C31.618 97.974 32.512 98.388 33.172 99.216C33.82 100.044 34.144 101.166 34.144 102.582ZM34.144 91.2289C34.144 92.1649 33.964 92.9869 33.604 93.6949C33.232 94.4029 32.716 94.9489 32.056 95.3329C31.396 95.7169 30.634 95.9089 29.77 95.9089L25.612 95.9089C24.748 95.9089 23.986 95.7169 23.326 95.3329C22.666 94.9489 22.156 94.4029 21.796 93.6949C21.436 92.9869 21.256 92.1649 21.256 91.2289C21.256 90.3049 21.43 89.4949 21.778 88.7989C22.114 88.0909 22.6 87.5449 23.236 87.1609C23.86 86.7649 24.586 86.5669 25.414 86.5669C25.522 86.5669 25.588 86.6389 25.612 86.7829L25.738 88.8889L25.738 88.9249C25.738 89.0449 25.672 89.1049 25.54 89.1049C24.904 89.1049 24.394 89.3029 24.01 89.6989C23.626 90.0829 23.434 90.5929 23.434 91.2289C23.434 91.8769 23.626 92.3989 24.01 92.7949C24.394 93.1789 24.904 93.3709 25.54 93.3709L29.878 93.3709C30.502 93.3709 31.006 93.1789 31.39 92.7949C31.774 92.3989 31.966 91.8769 31.966 91.2289C31.966 90.5929 31.774 90.0829 31.39 89.6989C31.006 89.3029 30.502 89.1049 29.878 89.1049C29.746 89.1049 29.68 89.0329 29.68 88.8889L29.77 86.7829C29.77 86.7229 29.788 86.6749 29.824 86.6389C29.86 86.5909 29.902 86.5669 29.95 86.5669C30.778 86.5669 31.51 86.7649 32.146 87.1609C32.782 87.5449 33.274 88.0909 33.622 88.7989C33.97 89.4949 34.144 90.3049 34.144 91.2289ZM34 77.2537C34 77.3737 33.946 77.4577 33.838 77.5057L28.852 79.7557C28.804 79.7797 28.78 79.8157 28.78 79.8637L28.78 81.5377C28.78 81.5977 28.81 81.6277 28.87 81.6277L33.784 81.6277C33.844 81.6277 33.898 81.6517 33.946 81.6997C33.982 81.7357 34 81.7837 34 81.8437L34 83.9497C34 84.0097 33.982 84.0637 33.946 84.1117C33.898 84.1477 33.844 84.1657 33.784 84.1657L21.616 84.1657C21.556 84.1657 21.508 84.1477 21.472 84.1117C21.424 84.0637 21.4 84.0097 21.4 83.9497L21.4 78.8017C21.4 78.0337 21.556 77.3617 21.868 76.7857C22.18 76.1977 22.624 75.7477 23.2 75.4357C23.776 75.1117 24.442 74.9497 25.198 74.9497C26.014 74.9497 26.716 75.1537 27.304 75.5617C27.88 75.9697 28.288 76.5397 28.528 77.2717C28.552 77.3317 28.594 77.3497 28.654 77.3257L33.748 74.8777C33.796 74.8537 33.832 74.8417 33.856 74.8417C33.952 74.8417 34 74.9077 34 75.0397L34 77.2537ZM23.578 81.5377C23.578 81.5977 23.608 81.6277 23.668 81.6277L26.746 81.6277C26.806 81.6277 26.836 81.5977 26.836 81.5377L26.836 79.1797C26.836 78.6757 26.686 78.2677 26.386 77.9557C26.086 77.6317 25.696 77.4697 25.216 77.4697C24.736 77.4697 24.346 77.6317 24.046 77.9557C23.734 78.2677 23.578 78.6757 23.578 79.1797L23.578 81.5377ZM34.198 68.0871C34.198 69.0231 34.006 69.8511 33.622 70.5711C33.238 71.2791 32.704 71.8311 32.02 72.2271C31.324 72.6231 30.526 72.8211 29.626 72.8211L25.774 72.8211C24.886 72.8211 24.1 72.6231 23.416 72.2271C22.732 71.8311 22.204 71.2791 21.832 70.5711C21.448 69.8511 21.256 69.0231 21.256 68.0871C21.256 67.1391 21.448 66.3111 21.832 65.6031C22.204 64.8831 22.732 64.3251 23.416 63.9291C24.1 63.5331 24.886 63.3351 25.774 63.3351L29.626 63.3351C30.526 63.3351 31.324 63.5331 32.02 63.9291C32.716 64.3251 33.256 64.8831 33.64 65.6031C34.012 66.3111 34.198 67.1391 34.198 68.0871ZM32.02 68.0871C32.02 67.4271 31.81 66.8931 31.39 66.4851C30.97 66.0771 30.412 65.8731 29.716 65.8731L25.756 65.8731C25.06 65.8731 24.502 66.0771 24.082 66.4851C23.65 66.8811 23.434 67.4151 23.434 68.0871C23.434 68.7471 23.65 69.2811 24.082 69.6891C24.502 70.0851 25.06 70.2831 25.756 70.2831L29.716 70.2831C30.412 70.2831 30.97 70.0851 31.39 69.6891C31.81 69.2811 32.02 68.7471 32.02 68.0871ZM34 60.6334C34 60.6934 33.982 60.7474 33.946 60.7954C33.898 60.8314 33.844 60.8494 33.784 60.8494L21.616 60.8494C21.556 60.8494 21.508 60.8314 21.472 60.7954C21.424 60.7474 21.4 60.6934 21.4 60.6334L21.4 58.5274C21.4 58.4674 21.424 58.4194 21.472 58.3834C21.508 58.3354 21.556 58.3114 21.616 58.3114L31.732 58.3114C31.792 58.3114 31.822 58.2814 31.822 58.2214L31.822 52.3354C31.822 52.2754 31.846 52.2274 31.894 52.1914C31.93 52.1434 31.978 52.1194 32.038 52.1194L33.784 52.1194C33.844 52.1194 33.898 52.1434 33.946 52.1914C33.982 52.2274 34 52.2754 34 52.3354L34 60.6334ZM34 49.7926C34 49.8526 33.982 49.9066 33.946 49.9546C33.898 49.9906 33.844 50.0086 33.784 50.0086L21.616 50.0086C21.556 50.0086 21.508 49.9906 21.472 49.9546C21.424 49.9066 21.4 49.8526 21.4 49.7926L21.4 47.6866C21.4 47.6266 21.424 47.5786 21.472 47.5426C21.508 47.4946 21.556 47.4706 21.616 47.4706L31.732 47.4706C31.792 47.4706 31.822 47.4406 31.822 47.3806L31.822 41.4946C31.822 41.4346 31.846 41.3866 31.894 41.3506C31.93 41.3026 31.978 41.2786 32.038 41.2786L33.784 41.2786C33.844 41.2786 33.898 41.3026 33.946 41.3506C33.982 41.3866 34 41.4346 34 41.4946L34 49.7926Z" fill="#CC9933"/>
<path d="M28.2929 170.707C28.6834 171.098 29.3166 171.098 29.7071 170.707L36.0711 164.343C36.4616 163.953 36.4616 163.319 36.0711 162.929C35.6805 162.538 35.0474 162.538 34.6569 162.929L29 168.586L23.3431 162.929C22.9526 162.538 22.3195 162.538 21.9289 162.929C21.5384 163.319 21.5384 163.953 21.9289 164.343L28.2929 170.707ZM29 146L28 146L28 170L29 170L30 170L30 146L29 146Z" fill="#CC9933"/>
<circle cx="29.5" cy="157.5" r="28.5" transform="rotate(90 29.5 157.5)" stroke="#CC9933" stroke-width="2"/>
</svg>
