<svg width="80" height="80" viewBox="0 0 80 80" fill="none" xmlns="http://www.w3.org/2000/svg">
<mask id="path-1-outside-1_898_3291" maskUnits="userSpaceOnUse" x="0" y="0" width="80" height="80" fill="black">
<rect fill="white" width="80" height="80"/>
<path d="M24.4813 28.7712C24.4813 31.8406 25.3914 34.841 27.0966 37.393C28.8019 39.9451 31.2255 41.9341 34.0612 43.1087C36.8969 44.2833 40.0172 44.5906 43.0276 43.9918C46.0379 43.393 48.8031 41.915 50.9734 39.7447C53.1437 37.5743 54.6218 34.8092 55.2206 31.7988C55.8194 28.7885 55.512 25.6682 54.3375 22.8325C53.1629 19.9968 51.1738 17.5731 48.6218 15.8679C46.0697 14.1627 43.0693 13.2525 40 13.2525C35.8848 13.2547 31.9388 14.8904 29.029 17.8002C26.1191 20.7101 24.4834 24.6561 24.4813 28.7712ZM40 14.8775C42.7479 14.8775 45.4341 15.6924 47.719 17.219C50.0038 18.7457 51.7846 20.9156 52.8362 23.4543C53.8877 25.9931 54.1629 28.7867 53.6268 31.4818C53.0907 34.1769 51.7674 36.6525 49.8244 38.5956C47.8813 40.5387 45.4057 41.8619 42.7105 42.398C40.0154 42.9341 37.2218 42.659 34.6831 41.6074C32.1443 40.5558 29.9744 38.775 28.4478 36.4902C26.9211 34.2054 26.1063 31.5192 26.1063 28.7712C26.1106 25.0877 27.5757 21.5563 30.1804 18.9516C32.785 16.347 36.3165 14.8818 40 14.8775ZM29.3806 28.7712C29.3828 25.9555 30.5023 23.2556 32.4933 21.2646C34.4844 19.2735 37.1842 18.154 40 18.1519C40.2155 18.1519 40.4222 18.2375 40.5745 18.3899C40.7269 18.5422 40.8125 18.7489 40.8125 18.9644C40.8125 19.1799 40.7269 19.3865 40.5745 19.5389C40.4222 19.6913 40.2155 19.7769 40 19.7769C37.6152 19.779 35.3287 20.7273 33.6424 22.4136C31.9561 24.0999 31.0078 26.3865 31.0056 28.7712C31.0056 28.9867 30.92 29.1934 30.7677 29.3458C30.6153 29.4981 30.4086 29.5837 30.1931 29.5837C29.9776 29.5837 29.771 29.4981 29.6186 29.3458C29.4662 29.1934 29.3806 28.9867 29.3806 28.7712ZM40 9.97812C39.7845 9.97812 39.5778 9.89252 39.4255 9.74015C39.2731 9.58778 39.1875 9.38111 39.1875 9.16562V1.8125C39.1875 1.59701 39.2731 1.39035 39.4255 1.23798C39.5778 1.0856 39.7845 1 40 1C40.2155 1 40.4222 1.0856 40.5745 1.23798C40.7269 1.39035 40.8125 1.59701 40.8125 1.8125V9.16562C40.8125 9.38111 40.7269 9.58778 40.5745 9.74015C40.4222 9.89252 40.2155 9.97812 40 9.97812ZM40 56.5344C39.7845 56.5344 39.5778 56.4488 39.4255 56.2964C39.2731 56.144 39.1875 55.9374 39.1875 55.7219V48.4094C39.1875 48.1939 39.2731 47.9872 39.4255 47.8349C39.5778 47.6825 39.7845 47.5969 40 47.5969C40.2155 47.5969 40.4222 47.6825 40.5745 47.8349C40.7269 47.9872 40.8125 48.1939 40.8125 48.4094V55.7219C40.8125 55.9374 40.7269 56.144 40.5745 56.2964C40.4222 56.4488 40.2155 56.5344 40 56.5344ZM32.5331 10.62L30.0144 3.71375C29.9746 3.61268 29.9554 3.50465 29.9581 3.39605C29.9607 3.28745 29.9851 3.18048 30.0298 3.08148C30.0745 2.98247 30.1386 2.89344 30.2184 2.81964C30.2981 2.74584 30.3918 2.68878 30.4939 2.65183C30.5961 2.61488 30.7046 2.59879 30.8131 2.60452C30.9216 2.61024 31.0278 2.63766 31.1255 2.68515C31.2232 2.73265 31.3104 2.79925 31.3819 2.88103C31.4534 2.9628 31.5078 3.05809 31.5419 3.16125L34.0606 10.0675C34.1338 10.2701 34.1236 10.4934 34.0321 10.6884C33.9407 10.8834 33.7756 11.0342 33.5731 11.1075C33.4846 11.1396 33.3911 11.1561 33.2969 11.1562C33.1299 11.1562 32.967 11.1047 32.8303 11.0087C32.6937 10.9128 32.5899 10.777 32.5331 10.62ZM49.9856 53.8125C50.0588 54.0151 50.0486 54.2384 49.9571 54.4334C49.8657 54.6284 49.7006 54.7792 49.4981 54.8525C49.4096 54.8846 49.3161 54.9011 49.2219 54.9012C49.0549 54.9012 48.892 54.8497 48.7553 54.7537C48.6187 54.6578 48.5149 54.522 48.4581 54.365L45.9394 47.4588C45.8996 47.3577 45.8804 47.2496 45.883 47.141C45.8857 47.0324 45.9101 46.9255 45.9548 46.8265C45.9995 46.7275 46.0636 46.6384 46.1434 46.5646C46.2231 46.4908 46.3168 46.4338 46.4189 46.3968C46.5211 46.3599 46.6296 46.3438 46.7381 46.3495C46.8466 46.3552 46.9528 46.3827 47.0505 46.4302C47.1482 46.4776 47.2354 46.5443 47.3069 46.626C47.3784 46.7078 47.4328 46.8031 47.4669 46.9062L49.9856 53.8125ZM28.0481 13.1875C28.1165 13.2696 28.1681 13.3644 28.1998 13.4664C28.2315 13.5685 28.2428 13.6758 28.233 13.7822C28.2232 13.8886 28.1925 13.9921 28.1426 14.0866C28.0928 14.1811 28.0248 14.2649 27.9425 14.3331C27.7963 14.4543 27.6123 14.5204 27.4225 14.52C27.3031 14.5202 27.1852 14.4941 27.0771 14.4435C26.9689 14.393 26.8733 14.3192 26.7969 14.2275L22.0519 8.6375C21.9318 8.47091 21.8792 8.26502 21.9048 8.06125C21.9303 7.85747 22.0321 7.67093 22.1896 7.53915C22.3471 7.40737 22.5487 7.34013 22.7538 7.35096C22.9589 7.36178 23.1522 7.44987 23.295 7.5975L28.0481 13.1875ZM53.2356 43.25L57.9481 48.9375C58.0847 49.1018 58.1511 49.3134 58.1328 49.5263C58.1146 49.7392 58.0132 49.9363 57.8506 50.075C57.7056 50.1991 57.5215 50.2681 57.3306 50.27C57.2113 50.2702 57.0933 50.2441 56.9852 50.1935C56.8771 50.143 56.7814 50.0692 56.705 49.9775L51.9762 44.3062C51.9078 44.2241 51.8563 44.1294 51.8246 44.0273C51.7928 43.9253 51.7816 43.8179 51.7914 43.7115C51.8012 43.6051 51.8319 43.5017 51.8817 43.4071C51.9316 43.3126 51.9996 43.2288 52.0819 43.1606C52.2452 43.0231 52.4561 42.9553 52.669 42.972C52.8818 42.9888 53.0795 43.0886 53.2194 43.25H53.2356ZM17.0794 14.5688L23.4412 18.2494C23.5938 18.3398 23.7125 18.4777 23.7793 18.642C23.8461 18.8062 23.8574 18.9878 23.8113 19.1591C23.7653 19.3303 23.6645 19.4818 23.5243 19.5904C23.3842 19.699 23.2123 19.7588 23.035 19.7606C22.8927 19.7616 22.7526 19.7252 22.6287 19.655L16.2669 15.9744C16.1698 15.9236 16.084 15.8537 16.0146 15.7689C15.9452 15.684 15.8937 15.5861 15.8632 15.4808C15.8326 15.3756 15.8237 15.2652 15.8369 15.1565C15.8501 15.0477 15.8852 14.9427 15.9401 14.8478C15.9949 14.7529 16.0684 14.6702 16.156 14.6044C16.2437 14.5387 16.3438 14.4913 16.4502 14.4653C16.5566 14.4392 16.6672 14.4349 16.7754 14.4527C16.8835 14.4705 16.9869 14.51 17.0794 14.5688ZM57.3875 37.8631L63.7494 41.5438C63.9352 41.6509 64.0711 41.8273 64.1274 42.0343C64.1838 42.2413 64.1559 42.4622 64.05 42.6488C63.9969 42.7419 63.9259 42.8235 63.8412 42.8891C63.7564 42.9546 63.6595 43.0028 63.556 43.0307C63.4525 43.0587 63.3446 43.0659 63.2383 43.0519C63.1321 43.0379 63.0296 43.0031 62.9369 42.9494L56.575 39.2769C56.4822 39.2235 56.4008 39.1524 56.3354 39.0676C56.2701 38.9828 56.2221 38.8859 56.1942 38.7826C56.1662 38.6792 56.159 38.5714 56.1727 38.4652C56.1865 38.359 56.221 38.2566 56.2744 38.1637C56.3277 38.0709 56.3988 37.9895 56.4837 37.9242C56.5685 37.8588 56.6653 37.8108 56.7687 37.7829C56.872 37.755 56.9799 37.7477 57.0861 37.7615C57.1922 37.7752 57.2947 37.8098 57.3875 37.8631ZM13.5938 23.2869L20.8331 24.5625C21.0486 24.5808 21.248 24.684 21.3874 24.8493C21.5268 25.0146 21.5949 25.2286 21.5766 25.4441C21.5582 25.6595 21.4551 25.8589 21.2898 25.9984C21.1244 26.1378 20.9105 26.2058 20.695 26.1875H20.5487L13.3094 24.8875C13.2043 24.8689 13.1038 24.8297 13.0139 24.7722C12.9239 24.7148 12.8461 24.6402 12.785 24.5526C12.7239 24.4651 12.6806 24.3664 12.6577 24.2621C12.6347 24.1579 12.6325 24.0501 12.6512 23.945C12.6699 23.8399 12.709 23.7395 12.7665 23.6495C12.824 23.5595 12.8986 23.4817 12.9861 23.4206C13.0736 23.3595 13.1724 23.3162 13.2766 23.2933C13.3809 23.2703 13.4886 23.2682 13.5938 23.2869ZM59.1669 32.9719C58.9514 32.9352 58.7593 32.8145 58.6328 32.6362C58.5063 32.458 58.4559 32.2367 58.4925 32.0212C58.5291 31.8058 58.6499 31.6137 58.8281 31.4872C59.0064 31.3607 59.2276 31.3102 59.4431 31.3469L66.6825 32.6875C66.898 32.7058 67.0974 32.809 67.2368 32.9743C67.3762 33.1396 67.4443 33.3536 67.4259 33.5691C67.4076 33.7845 67.3045 33.9839 67.1391 34.1234C66.9738 34.2628 66.7599 34.3308 66.5444 34.3125H66.4062L59.1669 32.9719ZM12.6512 33.5894C12.6252 33.3822 12.6798 33.173 12.8039 33.0051C12.9279 32.8372 13.1118 32.7234 13.3175 32.6875L20.5569 31.4119C20.7724 31.3752 20.9936 31.4257 21.1719 31.5522C21.3501 31.6786 21.4709 31.8708 21.5075 32.0862C21.5441 32.3017 21.4937 32.523 21.3672 32.7012C21.2407 32.8795 21.0486 33.0002 20.8331 33.0369L13.5938 34.2475H13.4556C13.2658 34.2491 13.0814 34.1841 12.9344 34.0639C12.7875 33.9436 12.6873 33.7758 12.6512 33.5894ZM67.3488 23.945C67.3675 24.0501 67.3653 24.1579 67.3423 24.2621C67.3194 24.3664 67.2761 24.4651 67.215 24.5526C67.1539 24.6402 67.0761 24.7148 66.9861 24.7722C66.8962 24.8297 66.7957 24.8689 66.6906 24.8875L59.4431 26.1875H59.305C59.0895 26.2058 58.8756 26.1378 58.7103 25.9984C58.5449 25.8589 58.4418 25.6595 58.4234 25.4441C58.4051 25.2286 58.4732 25.0146 58.6126 24.8493C58.752 24.684 58.9514 24.5808 59.1669 24.5625L66.4062 23.2869C66.5114 23.2682 66.6191 23.2703 66.7234 23.2933C66.8276 23.3162 66.9264 23.3595 67.0139 23.4206C67.1014 23.4817 67.176 23.5595 67.2335 23.6495C67.291 23.7395 67.3301 23.8399 67.3488 23.945ZM23.75 38.1637C23.8037 38.2565 23.8386 38.3589 23.8525 38.4652C23.8665 38.5714 23.8593 38.6794 23.8313 38.7829C23.8034 38.8863 23.7553 38.9833 23.6897 39.068C23.6242 39.1528 23.5425 39.2238 23.4494 39.2769L17.0875 42.9494C16.9948 43.0031 16.8923 43.0379 16.7861 43.0519C16.6798 43.0659 16.5718 43.0587 16.4684 43.0307C16.3649 43.0028 16.268 42.9546 16.1832 42.8891C16.0984 42.8235 16.0275 42.7419 15.9744 42.6488C15.8684 42.4622 15.8406 42.2413 15.8969 42.0343C15.9532 41.8273 16.0892 41.6509 16.275 41.5438L22.6369 37.8631C22.7296 37.8094 22.8321 37.7746 22.9383 37.7606C23.0446 37.7466 23.1525 37.7538 23.256 37.7818C23.3595 37.8097 23.4564 37.8579 23.5412 37.9234C23.6259 37.989 23.6969 38.0706 23.75 38.1637ZM64.05 14.8856C64.1559 15.0722 64.1838 15.2931 64.1274 15.5001C64.0711 15.7071 63.9352 15.8834 63.7494 15.9906L57.3875 19.6875C57.2637 19.7577 57.1236 19.7941 56.9813 19.7931C56.8039 19.7913 56.6321 19.7315 56.4919 19.6229C56.3517 19.5143 56.2509 19.3628 56.2049 19.1916C56.1589 19.0203 56.1701 18.8387 56.2369 18.6745C56.3038 18.5102 56.4225 18.3723 56.575 18.2819L62.9369 14.6012C63.1222 14.4914 63.3436 14.4596 63.5523 14.513C63.7611 14.5663 63.9401 14.7003 64.05 14.8856ZM22.0519 48.9375L26.7725 43.25C26.8408 43.1678 26.9246 43.0999 27.0191 43.0502C27.1136 43.0004 27.2171 42.9697 27.3234 42.9599C27.4298 42.9501 27.5371 42.9614 27.6391 42.993C27.7412 43.0247 27.836 43.0761 27.9181 43.1444C28.0003 43.2127 28.0682 43.2965 28.118 43.391C28.1677 43.4855 28.1984 43.5889 28.2082 43.6953C28.218 43.8017 28.2068 43.909 28.1751 44.011C28.1435 44.113 28.092 44.2078 28.0237 44.29L23.295 49.9206C23.2186 50.0123 23.1229 50.0861 23.0148 50.1367C22.9067 50.1872 22.7887 50.2133 22.6694 50.2131C22.4785 50.2112 22.2944 50.1422 22.1494 50.0181C22.0028 49.8817 21.9118 49.6959 21.8938 49.4965C21.8758 49.297 21.9321 49.098 22.0519 48.9375ZM57.875 7.5C58.0376 7.63869 58.139 7.83583 58.1572 8.04874C58.1755 8.26165 58.1091 8.47317 57.9725 8.6375L53.2438 14.2681C53.1682 14.3588 53.0739 14.4319 52.9672 14.4824C52.8606 14.533 52.7442 14.5596 52.6263 14.5606C52.4364 14.561 52.2524 14.4949 52.1063 14.3737C52.024 14.3055 51.956 14.2218 51.9061 14.1272C51.8563 14.0327 51.8256 13.9293 51.8158 13.8229C51.8059 13.7164 51.8172 13.6091 51.8489 13.5071C51.8807 13.405 51.9322 13.3102 52.0006 13.2281L56.7294 7.5975C56.7982 7.51582 56.8824 7.4485 56.9772 7.39938C57.072 7.35027 57.1756 7.32033 57.282 7.31127C57.3884 7.30222 57.4955 7.31423 57.5973 7.34661C57.699 7.37899 57.7934 7.43112 57.875 7.5ZM34.0606 47.4669L31.5419 54.3731C31.4851 54.5302 31.3813 54.6659 31.2447 54.7618C31.108 54.8578 30.9451 54.9093 30.7781 54.9094C30.6839 54.9093 30.5904 54.8928 30.5019 54.8606C30.2994 54.7873 30.1343 54.6365 30.0429 54.4415C29.9514 54.2465 29.9412 54.0232 30.0144 53.8206L32.5331 46.9144C32.5672 46.8112 32.6216 46.7159 32.6931 46.6342C32.7646 46.5524 32.8518 46.4858 32.9495 46.4383C33.0472 46.3908 33.1534 46.3634 33.2619 46.3576C33.3704 46.3519 33.4789 46.368 33.5811 46.405C33.6832 46.4419 33.7769 46.499 33.8566 46.5728C33.9364 46.6466 34.0005 46.7356 34.0452 46.8346C34.0899 46.9336 34.1143 47.0406 34.117 47.1492C34.1196 47.2578 34.1004 47.3658 34.0606 47.4669ZM46.4269 11.1075C46.2244 11.0342 46.0593 10.8834 45.9679 10.6884C45.8764 10.4934 45.8662 10.2701 45.9394 10.0675L48.4581 3.16125C48.4922 3.05809 48.5466 2.9628 48.6181 2.88103C48.6896 2.79925 48.7768 2.73265 48.8745 2.68515C48.9722 2.63766 49.0784 2.61024 49.1869 2.60452C49.2954 2.59879 49.4039 2.61488 49.5061 2.65183C49.6082 2.68878 49.7019 2.74584 49.7816 2.81964C49.8614 2.89344 49.9255 2.98247 49.9702 3.08148C50.0149 3.18048 50.0393 3.28745 50.042 3.39605C50.0446 3.50465 50.0255 3.61268 49.9856 3.71375L47.4669 10.62C47.4101 10.777 47.3063 10.9128 47.1697 11.0087C47.033 11.1047 46.8701 11.1562 46.7031 11.1562C46.6089 11.1561 46.5154 11.1396 46.4269 11.1075ZM16.7381 50.4406C16.9536 50.4406 17.1603 50.5262 17.3126 50.6786C17.465 50.831 17.5506 51.0376 17.5506 51.2531C17.5506 51.4686 17.465 51.6753 17.3126 51.8276C17.1603 51.98 16.9536 52.0656 16.7381 52.0656C14.9803 52.0677 13.2947 52.7653 12.0495 54.006C10.8042 55.2467 10.1005 56.9297 10.0919 58.6875C10.0919 58.903 10.0063 59.1097 9.8539 59.262C9.70153 59.4144 9.49486 59.5 9.27938 59.5C9.06389 59.5 8.85722 59.4144 8.70485 59.262C8.55248 59.1097 8.46688 58.903 8.46688 58.6875C8.45828 56.9283 7.75341 55.2441 6.5064 54.0031C5.25939 52.7622 3.57173 52.0656 1.8125 52.0656C1.59701 52.0656 1.39035 51.98 1.23798 51.8276C1.0856 51.6753 1 51.4686 1 51.2531C1 51.0376 1.0856 50.831 1.23798 50.6786C1.39035 50.5262 1.59701 50.4406 1.8125 50.4406C3.37204 50.4406 4.8998 50.8815 6.21953 51.7125C7.53926 52.5434 8.59719 53.7305 9.27125 55.1369C9.94591 53.7293 11.0051 52.5413 12.3264 51.7103C13.6477 50.8793 15.1772 50.4391 16.7381 50.4406ZM78.9919 51.2531C78.9919 51.4686 78.9063 51.6753 78.7539 51.8276C78.6015 51.98 78.3949 52.0656 78.1794 52.0656C76.4215 52.0677 74.736 52.7653 73.4907 54.006C72.2455 55.2467 71.5417 56.9297 71.5331 58.6875C71.5331 58.903 71.4475 59.1097 71.2952 59.262C71.1428 59.4144 70.9361 59.5 70.7206 59.5C70.5051 59.5 70.2985 59.4144 70.1461 59.262C69.9937 59.1097 69.9081 58.903 69.9081 58.6875C69.906 56.9255 69.2051 55.2362 67.9591 53.9903C66.7132 52.7443 65.0239 52.0434 63.2619 52.0412C63.0464 52.0412 62.8397 51.9556 62.6873 51.8033C62.535 51.6509 62.4494 51.4442 62.4494 51.2287C62.4494 51.0133 62.535 50.8066 62.6873 50.6542C62.8397 50.5019 63.0464 50.4162 63.2619 50.4162C64.8214 50.4162 66.3492 50.8572 67.6689 51.6881C68.9886 52.519 70.0466 53.7062 70.7206 55.1125C71.3987 53.7095 72.4594 52.5265 73.7805 51.7C75.1015 50.8734 76.6292 50.4369 78.1875 50.4406C78.403 50.4406 78.6096 50.5262 78.762 50.6786C78.9144 50.831 79 51.0376 79 51.2531H78.9919ZM14.5119 60.8406C16.0721 60.8423 17.6 61.2848 18.9197 62.1172C20.2393 62.9495 21.2969 64.1377 21.9706 65.545C22.6449 64.1365 23.7038 62.9474 25.025 62.115C26.3462 61.2826 27.8759 60.8408 29.4375 60.8406C29.653 60.8406 29.8597 60.9262 30.012 61.0786C30.1644 61.231 30.25 61.4376 30.25 61.6531C30.25 61.8686 30.1644 62.0753 30.012 62.2276C29.8597 62.38 29.653 62.4656 29.4375 62.4656C27.6755 62.4678 25.9862 63.1687 24.7403 64.4146C23.4943 65.6606 22.7934 67.3498 22.7913 69.1119C22.7913 69.3274 22.7056 69.534 22.5533 69.6864C22.4009 69.8388 22.1942 69.9244 21.9788 69.9244C21.7633 69.9244 21.5566 69.8388 21.4042 69.6864C21.2519 69.534 21.1663 69.3274 21.1663 69.1119C21.1641 67.3498 20.4632 65.6606 19.2172 64.4146C17.9713 63.1687 16.282 62.4678 14.52 62.4656C14.3045 62.4656 14.0978 62.38 13.9455 62.2276C13.7931 62.0753 13.7075 61.8686 13.7075 61.6531C13.7075 61.4376 13.7931 61.231 13.9455 61.0786C14.0978 60.9262 14.3045 60.8406 14.52 60.8406H14.5119ZM50.5706 60.8406C52.1306 60.8433 53.6582 61.2862 54.9776 62.1184C56.2971 62.9506 57.3549 64.1383 58.0294 65.545C58.7031 64.1377 59.7607 62.9495 61.0803 62.1172C62.4 61.2848 63.9279 60.8423 65.4881 60.8406C65.7036 60.8406 65.9103 60.9262 66.0627 61.0786C66.215 61.231 66.3006 61.4376 66.3006 61.6531C66.3006 61.8686 66.215 62.0753 66.0627 62.2276C65.9103 62.38 65.7036 62.4656 65.4881 62.4656C63.7261 62.4678 62.0368 63.1687 60.7909 64.4146C59.5449 65.6606 58.844 67.3498 58.8419 69.1119C58.8419 69.3274 58.7563 69.534 58.6039 69.6864C58.4515 69.8388 58.2449 69.9244 58.0294 69.9244C57.8139 69.9244 57.6072 69.8388 57.4549 69.6864C57.3025 69.534 57.2169 69.3274 57.2169 69.1119C57.2147 67.3484 56.5127 65.658 55.265 64.4118C54.0173 63.1656 52.3259 62.4656 50.5625 62.4656C50.347 62.4656 50.1403 62.38 49.988 62.2276C49.8356 62.0753 49.75 61.8686 49.75 61.6531C49.75 61.4376 49.8356 61.231 49.988 61.0786C50.1403 60.9262 50.347 60.8406 50.5625 60.8406H50.5706ZM40 74.6125C40.6741 73.2062 41.732 72.019 43.0517 71.1881C44.3715 70.3572 45.8992 69.9163 47.4588 69.9163C47.6742 69.9163 47.8809 70.0019 48.0333 70.1542C48.1856 70.3066 48.2713 70.5133 48.2713 70.7288C48.2713 70.9442 48.1856 71.1509 48.0333 71.3033C47.8809 71.4557 47.6742 71.5413 47.4588 71.5413C45.6967 71.5434 44.0075 72.2443 42.7615 73.4903C41.5156 74.7362 40.8147 76.4255 40.8125 78.1875C40.8125 78.403 40.7269 78.6096 40.5745 78.762C40.4222 78.9144 40.2155 79 40 79C39.7845 79 39.5778 78.9144 39.4255 78.762C39.2731 78.6096 39.1875 78.403 39.1875 78.1875C39.1853 76.4255 38.4844 74.7362 37.2385 73.4903C35.9925 72.2443 34.3033 71.5434 32.5413 71.5413C32.3258 71.5413 32.1191 71.4557 31.9667 71.3033C31.8144 71.1509 31.7288 70.9442 31.7288 70.7288C31.7288 70.5133 31.8144 70.3066 31.9667 70.1542C32.1191 70.0019 32.3258 69.9163 32.5413 69.9163C34.1008 69.9163 35.6285 70.3572 36.9483 71.1881C38.268 72.019 39.3259 73.2062 40 74.6125Z"/>
</mask>
<path d="M24.4813 28.7712C24.4813 31.8406 25.3914 34.841 27.0966 37.393C28.8019 39.9451 31.2255 41.9341 34.0612 43.1087C36.8969 44.2833 40.0172 44.5906 43.0276 43.9918C46.0379 43.393 48.8031 41.915 50.9734 39.7447C53.1437 37.5743 54.6218 34.8092 55.2206 31.7988C55.8194 28.7885 55.512 25.6682 54.3375 22.8325C53.1629 19.9968 51.1738 17.5731 48.6218 15.8679C46.0697 14.1627 43.0693 13.2525 40 13.2525C35.8848 13.2547 31.9388 14.8904 29.029 17.8002C26.1191 20.7101 24.4834 24.6561 24.4813 28.7712ZM40 14.8775C42.7479 14.8775 45.4341 15.6924 47.719 17.219C50.0038 18.7457 51.7846 20.9156 52.8362 23.4543C53.8877 25.9931 54.1629 28.7867 53.6268 31.4818C53.0907 34.1769 51.7674 36.6525 49.8244 38.5956C47.8813 40.5387 45.4057 41.8619 42.7105 42.398C40.0154 42.9341 37.2218 42.659 34.6831 41.6074C32.1443 40.5558 29.9744 38.775 28.4478 36.4902C26.9211 34.2054 26.1063 31.5192 26.1063 28.7712C26.1106 25.0877 27.5757 21.5563 30.1804 18.9516C32.785 16.347 36.3165 14.8818 40 14.8775ZM29.3806 28.7712C29.3828 25.9555 30.5023 23.2556 32.4933 21.2646C34.4844 19.2735 37.1842 18.154 40 18.1519C40.2155 18.1519 40.4222 18.2375 40.5745 18.3899C40.7269 18.5422 40.8125 18.7489 40.8125 18.9644C40.8125 19.1799 40.7269 19.3865 40.5745 19.5389C40.4222 19.6913 40.2155 19.7769 40 19.7769C37.6152 19.779 35.3287 20.7273 33.6424 22.4136C31.9561 24.0999 31.0078 26.3865 31.0056 28.7712C31.0056 28.9867 30.92 29.1934 30.7677 29.3458C30.6153 29.4981 30.4086 29.5837 30.1931 29.5837C29.9776 29.5837 29.771 29.4981 29.6186 29.3458C29.4662 29.1934 29.3806 28.9867 29.3806 28.7712ZM40 9.97812C39.7845 9.97812 39.5778 9.89252 39.4255 9.74015C39.2731 9.58778 39.1875 9.38111 39.1875 9.16562V1.8125C39.1875 1.59701 39.2731 1.39035 39.4255 1.23798C39.5778 1.0856 39.7845 1 40 1C40.2155 1 40.4222 1.0856 40.5745 1.23798C40.7269 1.39035 40.8125 1.59701 40.8125 1.8125V9.16562C40.8125 9.38111 40.7269 9.58778 40.5745 9.74015C40.4222 9.89252 40.2155 9.97812 40 9.97812ZM40 56.5344C39.7845 56.5344 39.5778 56.4488 39.4255 56.2964C39.2731 56.144 39.1875 55.9374 39.1875 55.7219V48.4094C39.1875 48.1939 39.2731 47.9872 39.4255 47.8349C39.5778 47.6825 39.7845 47.5969 40 47.5969C40.2155 47.5969 40.4222 47.6825 40.5745 47.8349C40.7269 47.9872 40.8125 48.1939 40.8125 48.4094V55.7219C40.8125 55.9374 40.7269 56.144 40.5745 56.2964C40.4222 56.4488 40.2155 56.5344 40 56.5344ZM32.5331 10.62L30.0144 3.71375C29.9746 3.61268 29.9554 3.50465 29.9581 3.39605C29.9607 3.28745 29.9851 3.18048 30.0298 3.08148C30.0745 2.98247 30.1386 2.89344 30.2184 2.81964C30.2981 2.74584 30.3918 2.68878 30.4939 2.65183C30.5961 2.61488 30.7046 2.59879 30.8131 2.60452C30.9216 2.61024 31.0278 2.63766 31.1255 2.68515C31.2232 2.73265 31.3104 2.79925 31.3819 2.88103C31.4534 2.9628 31.5078 3.05809 31.5419 3.16125L34.0606 10.0675C34.1338 10.2701 34.1236 10.4934 34.0321 10.6884C33.9407 10.8834 33.7756 11.0342 33.5731 11.1075C33.4846 11.1396 33.3911 11.1561 33.2969 11.1562C33.1299 11.1562 32.967 11.1047 32.8303 11.0087C32.6937 10.9128 32.5899 10.777 32.5331 10.62ZM49.9856 53.8125C50.0588 54.0151 50.0486 54.2384 49.9571 54.4334C49.8657 54.6284 49.7006 54.7792 49.4981 54.8525C49.4096 54.8846 49.3161 54.9011 49.2219 54.9012C49.0549 54.9012 48.892 54.8497 48.7553 54.7537C48.6187 54.6578 48.5149 54.522 48.4581 54.365L45.9394 47.4588C45.8996 47.3577 45.8804 47.2496 45.883 47.141C45.8857 47.0324 45.9101 46.9255 45.9548 46.8265C45.9995 46.7275 46.0636 46.6384 46.1434 46.5646C46.2231 46.4908 46.3168 46.4338 46.4189 46.3968C46.5211 46.3599 46.6296 46.3438 46.7381 46.3495C46.8466 46.3552 46.9528 46.3827 47.0505 46.4302C47.1482 46.4776 47.2354 46.5443 47.3069 46.626C47.3784 46.7078 47.4328 46.8031 47.4669 46.9062L49.9856 53.8125ZM28.0481 13.1875C28.1165 13.2696 28.1681 13.3644 28.1998 13.4664C28.2315 13.5685 28.2428 13.6758 28.233 13.7822C28.2232 13.8886 28.1925 13.9921 28.1426 14.0866C28.0928 14.1811 28.0248 14.2649 27.9425 14.3331C27.7963 14.4543 27.6123 14.5204 27.4225 14.52C27.3031 14.5202 27.1852 14.4941 27.0771 14.4435C26.9689 14.393 26.8733 14.3192 26.7969 14.2275L22.0519 8.6375C21.9318 8.47091 21.8792 8.26502 21.9048 8.06125C21.9303 7.85747 22.0321 7.67093 22.1896 7.53915C22.3471 7.40737 22.5487 7.34013 22.7538 7.35096C22.9589 7.36178 23.1522 7.44987 23.295 7.5975L28.0481 13.1875ZM53.2356 43.25L57.9481 48.9375C58.0847 49.1018 58.1511 49.3134 58.1328 49.5263C58.1146 49.7392 58.0132 49.9363 57.8506 50.075C57.7056 50.1991 57.5215 50.2681 57.3306 50.27C57.2113 50.2702 57.0933 50.2441 56.9852 50.1935C56.8771 50.143 56.7814 50.0692 56.705 49.9775L51.9762 44.3062C51.9078 44.2241 51.8563 44.1294 51.8246 44.0273C51.7928 43.9253 51.7816 43.8179 51.7914 43.7115C51.8012 43.6051 51.8319 43.5017 51.8817 43.4071C51.9316 43.3126 51.9996 43.2288 52.0819 43.1606C52.2452 43.0231 52.4561 42.9553 52.669 42.972C52.8818 42.9888 53.0795 43.0886 53.2194 43.25H53.2356ZM17.0794 14.5688L23.4412 18.2494C23.5938 18.3398 23.7125 18.4777 23.7793 18.642C23.8461 18.8062 23.8574 18.9878 23.8113 19.1591C23.7653 19.3303 23.6645 19.4818 23.5243 19.5904C23.3842 19.699 23.2123 19.7588 23.035 19.7606C22.8927 19.7616 22.7526 19.7252 22.6287 19.655L16.2669 15.9744C16.1698 15.9236 16.084 15.8537 16.0146 15.7689C15.9452 15.684 15.8937 15.5861 15.8632 15.4808C15.8326 15.3756 15.8237 15.2652 15.8369 15.1565C15.8501 15.0477 15.8852 14.9427 15.9401 14.8478C15.9949 14.7529 16.0684 14.6702 16.156 14.6044C16.2437 14.5387 16.3438 14.4913 16.4502 14.4653C16.5566 14.4392 16.6672 14.4349 16.7754 14.4527C16.8835 14.4705 16.9869 14.51 17.0794 14.5688ZM57.3875 37.8631L63.7494 41.5438C63.9352 41.6509 64.0711 41.8273 64.1274 42.0343C64.1838 42.2413 64.1559 42.4622 64.05 42.6488C63.9969 42.7419 63.9259 42.8235 63.8412 42.8891C63.7564 42.9546 63.6595 43.0028 63.556 43.0307C63.4525 43.0587 63.3446 43.0659 63.2383 43.0519C63.1321 43.0379 63.0296 43.0031 62.9369 42.9494L56.575 39.2769C56.4822 39.2235 56.4008 39.1524 56.3354 39.0676C56.2701 38.9828 56.2221 38.8859 56.1942 38.7826C56.1662 38.6792 56.159 38.5714 56.1727 38.4652C56.1865 38.359 56.221 38.2566 56.2744 38.1637C56.3277 38.0709 56.3988 37.9895 56.4837 37.9242C56.5685 37.8588 56.6653 37.8108 56.7687 37.7829C56.872 37.755 56.9799 37.7477 57.0861 37.7615C57.1922 37.7752 57.2947 37.8098 57.3875 37.8631ZM13.5938 23.2869L20.8331 24.5625C21.0486 24.5808 21.248 24.684 21.3874 24.8493C21.5268 25.0146 21.5949 25.2286 21.5766 25.4441C21.5582 25.6595 21.4551 25.8589 21.2898 25.9984C21.1244 26.1378 20.9105 26.2058 20.695 26.1875H20.5487L13.3094 24.8875C13.2043 24.8689 13.1038 24.8297 13.0139 24.7722C12.9239 24.7148 12.8461 24.6402 12.785 24.5526C12.7239 24.4651 12.6806 24.3664 12.6577 24.2621C12.6347 24.1579 12.6325 24.0501 12.6512 23.945C12.6699 23.8399 12.709 23.7395 12.7665 23.6495C12.824 23.5595 12.8986 23.4817 12.9861 23.4206C13.0736 23.3595 13.1724 23.3162 13.2766 23.2933C13.3809 23.2703 13.4886 23.2682 13.5938 23.2869ZM59.1669 32.9719C58.9514 32.9352 58.7593 32.8145 58.6328 32.6362C58.5063 32.458 58.4559 32.2367 58.4925 32.0212C58.5291 31.8058 58.6499 31.6137 58.8281 31.4872C59.0064 31.3607 59.2276 31.3102 59.4431 31.3469L66.6825 32.6875C66.898 32.7058 67.0974 32.809 67.2368 32.9743C67.3762 33.1396 67.4443 33.3536 67.4259 33.5691C67.4076 33.7845 67.3045 33.9839 67.1391 34.1234C66.9738 34.2628 66.7599 34.3308 66.5444 34.3125H66.4062L59.1669 32.9719ZM12.6512 33.5894C12.6252 33.3822 12.6798 33.173 12.8039 33.0051C12.9279 32.8372 13.1118 32.7234 13.3175 32.6875L20.5569 31.4119C20.7724 31.3752 20.9936 31.4257 21.1719 31.5522C21.3501 31.6786 21.4709 31.8708 21.5075 32.0862C21.5441 32.3017 21.4937 32.523 21.3672 32.7012C21.2407 32.8795 21.0486 33.0002 20.8331 33.0369L13.5938 34.2475H13.4556C13.2658 34.2491 13.0814 34.1841 12.9344 34.0639C12.7875 33.9436 12.6873 33.7758 12.6512 33.5894ZM67.3488 23.945C67.3675 24.0501 67.3653 24.1579 67.3423 24.2621C67.3194 24.3664 67.2761 24.4651 67.215 24.5526C67.1539 24.6402 67.0761 24.7148 66.9861 24.7722C66.8962 24.8297 66.7957 24.8689 66.6906 24.8875L59.4431 26.1875H59.305C59.0895 26.2058 58.8756 26.1378 58.7103 25.9984C58.5449 25.8589 58.4418 25.6595 58.4234 25.4441C58.4051 25.2286 58.4732 25.0146 58.6126 24.8493C58.752 24.684 58.9514 24.5808 59.1669 24.5625L66.4062 23.2869C66.5114 23.2682 66.6191 23.2703 66.7234 23.2933C66.8276 23.3162 66.9264 23.3595 67.0139 23.4206C67.1014 23.4817 67.176 23.5595 67.2335 23.6495C67.291 23.7395 67.3301 23.8399 67.3488 23.945ZM23.75 38.1637C23.8037 38.2565 23.8386 38.3589 23.8525 38.4652C23.8665 38.5714 23.8593 38.6794 23.8313 38.7829C23.8034 38.8863 23.7553 38.9833 23.6897 39.068C23.6242 39.1528 23.5425 39.2238 23.4494 39.2769L17.0875 42.9494C16.9948 43.0031 16.8923 43.0379 16.7861 43.0519C16.6798 43.0659 16.5718 43.0587 16.4684 43.0307C16.3649 43.0028 16.268 42.9546 16.1832 42.8891C16.0984 42.8235 16.0275 42.7419 15.9744 42.6488C15.8684 42.4622 15.8406 42.2413 15.8969 42.0343C15.9532 41.8273 16.0892 41.6509 16.275 41.5438L22.6369 37.8631C22.7296 37.8094 22.8321 37.7746 22.9383 37.7606C23.0446 37.7466 23.1525 37.7538 23.256 37.7818C23.3595 37.8097 23.4564 37.8579 23.5412 37.9234C23.6259 37.989 23.6969 38.0706 23.75 38.1637ZM64.05 14.8856C64.1559 15.0722 64.1838 15.2931 64.1274 15.5001C64.0711 15.7071 63.9352 15.8834 63.7494 15.9906L57.3875 19.6875C57.2637 19.7577 57.1236 19.7941 56.9813 19.7931C56.8039 19.7913 56.6321 19.7315 56.4919 19.6229C56.3517 19.5143 56.2509 19.3628 56.2049 19.1916C56.1589 19.0203 56.1701 18.8387 56.2369 18.6745C56.3038 18.5102 56.4225 18.3723 56.575 18.2819L62.9369 14.6012C63.1222 14.4914 63.3436 14.4596 63.5523 14.513C63.7611 14.5663 63.9401 14.7003 64.05 14.8856ZM22.0519 48.9375L26.7725 43.25C26.8408 43.1678 26.9246 43.0999 27.0191 43.0502C27.1136 43.0004 27.2171 42.9697 27.3234 42.9599C27.4298 42.9501 27.5371 42.9614 27.6391 42.993C27.7412 43.0247 27.836 43.0761 27.9181 43.1444C28.0003 43.2127 28.0682 43.2965 28.118 43.391C28.1677 43.4855 28.1984 43.5889 28.2082 43.6953C28.218 43.8017 28.2068 43.909 28.1751 44.011C28.1435 44.113 28.092 44.2078 28.0237 44.29L23.295 49.9206C23.2186 50.0123 23.1229 50.0861 23.0148 50.1367C22.9067 50.1872 22.7887 50.2133 22.6694 50.2131C22.4785 50.2112 22.2944 50.1422 22.1494 50.0181C22.0028 49.8817 21.9118 49.6959 21.8938 49.4965C21.8758 49.297 21.9321 49.098 22.0519 48.9375ZM57.875 7.5C58.0376 7.63869 58.139 7.83583 58.1572 8.04874C58.1755 8.26165 58.1091 8.47317 57.9725 8.6375L53.2438 14.2681C53.1682 14.3588 53.0739 14.4319 52.9672 14.4824C52.8606 14.533 52.7442 14.5596 52.6263 14.5606C52.4364 14.561 52.2524 14.4949 52.1063 14.3737C52.024 14.3055 51.956 14.2218 51.9061 14.1272C51.8563 14.0327 51.8256 13.9293 51.8158 13.8229C51.8059 13.7164 51.8172 13.6091 51.8489 13.5071C51.8807 13.405 51.9322 13.3102 52.0006 13.2281L56.7294 7.5975C56.7982 7.51582 56.8824 7.4485 56.9772 7.39938C57.072 7.35027 57.1756 7.32033 57.282 7.31127C57.3884 7.30222 57.4955 7.31423 57.5973 7.34661C57.699 7.37899 57.7934 7.43112 57.875 7.5ZM34.0606 47.4669L31.5419 54.3731C31.4851 54.5302 31.3813 54.6659 31.2447 54.7618C31.108 54.8578 30.9451 54.9093 30.7781 54.9094C30.6839 54.9093 30.5904 54.8928 30.5019 54.8606C30.2994 54.7873 30.1343 54.6365 30.0429 54.4415C29.9514 54.2465 29.9412 54.0232 30.0144 53.8206L32.5331 46.9144C32.5672 46.8112 32.6216 46.7159 32.6931 46.6342C32.7646 46.5524 32.8518 46.4858 32.9495 46.4383C33.0472 46.3908 33.1534 46.3634 33.2619 46.3576C33.3704 46.3519 33.4789 46.368 33.5811 46.405C33.6832 46.4419 33.7769 46.499 33.8566 46.5728C33.9364 46.6466 34.0005 46.7356 34.0452 46.8346C34.0899 46.9336 34.1143 47.0406 34.117 47.1492C34.1196 47.2578 34.1004 47.3658 34.0606 47.4669ZM46.4269 11.1075C46.2244 11.0342 46.0593 10.8834 45.9679 10.6884C45.8764 10.4934 45.8662 10.2701 45.9394 10.0675L48.4581 3.16125C48.4922 3.05809 48.5466 2.9628 48.6181 2.88103C48.6896 2.79925 48.7768 2.73265 48.8745 2.68515C48.9722 2.63766 49.0784 2.61024 49.1869 2.60452C49.2954 2.59879 49.4039 2.61488 49.5061 2.65183C49.6082 2.68878 49.7019 2.74584 49.7816 2.81964C49.8614 2.89344 49.9255 2.98247 49.9702 3.08148C50.0149 3.18048 50.0393 3.28745 50.042 3.39605C50.0446 3.50465 50.0255 3.61268 49.9856 3.71375L47.4669 10.62C47.4101 10.777 47.3063 10.9128 47.1697 11.0087C47.033 11.1047 46.8701 11.1562 46.7031 11.1562C46.6089 11.1561 46.5154 11.1396 46.4269 11.1075ZM16.7381 50.4406C16.9536 50.4406 17.1603 50.5262 17.3126 50.6786C17.465 50.831 17.5506 51.0376 17.5506 51.2531C17.5506 51.4686 17.465 51.6753 17.3126 51.8276C17.1603 51.98 16.9536 52.0656 16.7381 52.0656C14.9803 52.0677 13.2947 52.7653 12.0495 54.006C10.8042 55.2467 10.1005 56.9297 10.0919 58.6875C10.0919 58.903 10.0063 59.1097 9.8539 59.262C9.70153 59.4144 9.49486 59.5 9.27938 59.5C9.06389 59.5 8.85722 59.4144 8.70485 59.262C8.55248 59.1097 8.46688 58.903 8.46688 58.6875C8.45828 56.9283 7.75341 55.2441 6.5064 54.0031C5.25939 52.7622 3.57173 52.0656 1.8125 52.0656C1.59701 52.0656 1.39035 51.98 1.23798 51.8276C1.0856 51.6753 1 51.4686 1 51.2531C1 51.0376 1.0856 50.831 1.23798 50.6786C1.39035 50.5262 1.59701 50.4406 1.8125 50.4406C3.37204 50.4406 4.8998 50.8815 6.21953 51.7125C7.53926 52.5434 8.59719 53.7305 9.27125 55.1369C9.94591 53.7293 11.0051 52.5413 12.3264 51.7103C13.6477 50.8793 15.1772 50.4391 16.7381 50.4406ZM78.9919 51.2531C78.9919 51.4686 78.9063 51.6753 78.7539 51.8276C78.6015 51.98 78.3949 52.0656 78.1794 52.0656C76.4215 52.0677 74.736 52.7653 73.4907 54.006C72.2455 55.2467 71.5417 56.9297 71.5331 58.6875C71.5331 58.903 71.4475 59.1097 71.2952 59.262C71.1428 59.4144 70.9361 59.5 70.7206 59.5C70.5051 59.5 70.2985 59.4144 70.1461 59.262C69.9937 59.1097 69.9081 58.903 69.9081 58.6875C69.906 56.9255 69.2051 55.2362 67.9591 53.9903C66.7132 52.7443 65.0239 52.0434 63.2619 52.0412C63.0464 52.0412 62.8397 51.9556 62.6873 51.8033C62.535 51.6509 62.4494 51.4442 62.4494 51.2287C62.4494 51.0133 62.535 50.8066 62.6873 50.6542C62.8397 50.5019 63.0464 50.4162 63.2619 50.4162C64.8214 50.4162 66.3492 50.8572 67.6689 51.6881C68.9886 52.519 70.0466 53.7062 70.7206 55.1125C71.3987 53.7095 72.4594 52.5265 73.7805 51.7C75.1015 50.8734 76.6292 50.4369 78.1875 50.4406C78.403 50.4406 78.6096 50.5262 78.762 50.6786C78.9144 50.831 79 51.0376 79 51.2531H78.9919ZM14.5119 60.8406C16.0721 60.8423 17.6 61.2848 18.9197 62.1172C20.2393 62.9495 21.2969 64.1377 21.9706 65.545C22.6449 64.1365 23.7038 62.9474 25.025 62.115C26.3462 61.2826 27.8759 60.8408 29.4375 60.8406C29.653 60.8406 29.8597 60.9262 30.012 61.0786C30.1644 61.231 30.25 61.4376 30.25 61.6531C30.25 61.8686 30.1644 62.0753 30.012 62.2276C29.8597 62.38 29.653 62.4656 29.4375 62.4656C27.6755 62.4678 25.9862 63.1687 24.7403 64.4146C23.4943 65.6606 22.7934 67.3498 22.7913 69.1119C22.7913 69.3274 22.7056 69.534 22.5533 69.6864C22.4009 69.8388 22.1942 69.9244 21.9788 69.9244C21.7633 69.9244 21.5566 69.8388 21.4042 69.6864C21.2519 69.534 21.1663 69.3274 21.1663 69.1119C21.1641 67.3498 20.4632 65.6606 19.2172 64.4146C17.9713 63.1687 16.282 62.4678 14.52 62.4656C14.3045 62.4656 14.0978 62.38 13.9455 62.2276C13.7931 62.0753 13.7075 61.8686 13.7075 61.6531C13.7075 61.4376 13.7931 61.231 13.9455 61.0786C14.0978 60.9262 14.3045 60.8406 14.52 60.8406H14.5119ZM50.5706 60.8406C52.1306 60.8433 53.6582 61.2862 54.9776 62.1184C56.2971 62.9506 57.3549 64.1383 58.0294 65.545C58.7031 64.1377 59.7607 62.9495 61.0803 62.1172C62.4 61.2848 63.9279 60.8423 65.4881 60.8406C65.7036 60.8406 65.9103 60.9262 66.0627 61.0786C66.215 61.231 66.3006 61.4376 66.3006 61.6531C66.3006 61.8686 66.215 62.0753 66.0627 62.2276C65.9103 62.38 65.7036 62.4656 65.4881 62.4656C63.7261 62.4678 62.0368 63.1687 60.7909 64.4146C59.5449 65.6606 58.844 67.3498 58.8419 69.1119C58.8419 69.3274 58.7563 69.534 58.6039 69.6864C58.4515 69.8388 58.2449 69.9244 58.0294 69.9244C57.8139 69.9244 57.6072 69.8388 57.4549 69.6864C57.3025 69.534 57.2169 69.3274 57.2169 69.1119C57.2147 67.3484 56.5127 65.658 55.265 64.4118C54.0173 63.1656 52.3259 62.4656 50.5625 62.4656C50.347 62.4656 50.1403 62.38 49.988 62.2276C49.8356 62.0753 49.75 61.8686 49.75 61.6531C49.75 61.4376 49.8356 61.231 49.988 61.0786C50.1403 60.9262 50.347 60.8406 50.5625 60.8406H50.5706ZM40 74.6125C40.6741 73.2062 41.732 72.019 43.0517 71.1881C44.3715 70.3572 45.8992 69.9163 47.4588 69.9163C47.6742 69.9163 47.8809 70.0019 48.0333 70.1542C48.1856 70.3066 48.2713 70.5133 48.2713 70.7288C48.2713 70.9442 48.1856 71.1509 48.0333 71.3033C47.8809 71.4557 47.6742 71.5413 47.4588 71.5413C45.6967 71.5434 44.0075 72.2443 42.7615 73.4903C41.5156 74.7362 40.8147 76.4255 40.8125 78.1875C40.8125 78.403 40.7269 78.6096 40.5745 78.762C40.4222 78.9144 40.2155 79 40 79C39.7845 79 39.5778 78.9144 39.4255 78.762C39.2731 78.6096 39.1875 78.403 39.1875 78.1875C39.1853 76.4255 38.4844 74.7362 37.2385 73.4903C35.9925 72.2443 34.3033 71.5434 32.5413 71.5413C32.3258 71.5413 32.1191 71.4557 31.9667 71.3033C31.8144 71.1509 31.7288 70.9442 31.7288 70.7288C31.7288 70.5133 31.8144 70.3066 31.9667 70.1542C32.1191 70.0019 32.3258 69.9163 32.5413 69.9163C34.1008 69.9163 35.6285 70.3572 36.9483 71.1881C38.268 72.019 39.3259 73.2062 40 74.6125Z" fill="#CC9933"/>
<path d="M24.4813 28.7712C24.4813 31.8406 25.3914 34.841 27.0966 37.393C28.8019 39.9451 31.2255 41.9341 34.0612 43.1087C36.8969 44.2833 40.0172 44.5906 43.0276 43.9918C46.0379 43.393 48.8031 41.915 50.9734 39.7447C53.1437 37.5743 54.6218 34.8092 55.2206 31.7988C55.8194 28.7885 55.512 25.6682 54.3375 22.8325C53.1629 19.9968 51.1738 17.5731 48.6218 15.8679C46.0697 14.1627 43.0693 13.2525 40 13.2525C35.8848 13.2547 31.9388 14.8904 29.029 17.8002C26.1191 20.7101 24.4834 24.6561 24.4813 28.7712ZM40 14.8775C42.7479 14.8775 45.4341 15.6924 47.719 17.219C50.0038 18.7457 51.7846 20.9156 52.8362 23.4543C53.8877 25.9931 54.1629 28.7867 53.6268 31.4818C53.0907 34.1769 51.7674 36.6525 49.8244 38.5956C47.8813 40.5387 45.4057 41.8619 42.7105 42.398C40.0154 42.9341 37.2218 42.659 34.6831 41.6074C32.1443 40.5558 29.9744 38.775 28.4478 36.4902C26.9211 34.2054 26.1063 31.5192 26.1063 28.7712C26.1106 25.0877 27.5757 21.5563 30.1804 18.9516C32.785 16.347 36.3165 14.8818 40 14.8775ZM29.3806 28.7712C29.3828 25.9555 30.5023 23.2556 32.4933 21.2646C34.4844 19.2735 37.1842 18.154 40 18.1519C40.2155 18.1519 40.4222 18.2375 40.5745 18.3899C40.7269 18.5422 40.8125 18.7489 40.8125 18.9644C40.8125 19.1799 40.7269 19.3865 40.5745 19.5389C40.4222 19.6913 40.2155 19.7769 40 19.7769C37.6152 19.779 35.3287 20.7273 33.6424 22.4136C31.9561 24.0999 31.0078 26.3865 31.0056 28.7712C31.0056 28.9867 30.92 29.1934 30.7677 29.3458C30.6153 29.4981 30.4086 29.5837 30.1931 29.5837C29.9776 29.5837 29.771 29.4981 29.6186 29.3458C29.4662 29.1934 29.3806 28.9867 29.3806 28.7712ZM40 9.97812C39.7845 9.97812 39.5778 9.89252 39.4255 9.74015C39.2731 9.58778 39.1875 9.38111 39.1875 9.16562V1.8125C39.1875 1.59701 39.2731 1.39035 39.4255 1.23798C39.5778 1.0856 39.7845 1 40 1C40.2155 1 40.4222 1.0856 40.5745 1.23798C40.7269 1.39035 40.8125 1.59701 40.8125 1.8125V9.16562C40.8125 9.38111 40.7269 9.58778 40.5745 9.74015C40.4222 9.89252 40.2155 9.97812 40 9.97812ZM40 56.5344C39.7845 56.5344 39.5778 56.4488 39.4255 56.2964C39.2731 56.144 39.1875 55.9374 39.1875 55.7219V48.4094C39.1875 48.1939 39.2731 47.9872 39.4255 47.8349C39.5778 47.6825 39.7845 47.5969 40 47.5969C40.2155 47.5969 40.4222 47.6825 40.5745 47.8349C40.7269 47.9872 40.8125 48.1939 40.8125 48.4094V55.7219C40.8125 55.9374 40.7269 56.144 40.5745 56.2964C40.4222 56.4488 40.2155 56.5344 40 56.5344ZM32.5331 10.62L30.0144 3.71375C29.9746 3.61268 29.9554 3.50465 29.9581 3.39605C29.9607 3.28745 29.9851 3.18048 30.0298 3.08148C30.0745 2.98247 30.1386 2.89344 30.2184 2.81964C30.2981 2.74584 30.3918 2.68878 30.4939 2.65183C30.5961 2.61488 30.7046 2.59879 30.8131 2.60452C30.9216 2.61024 31.0278 2.63766 31.1255 2.68515C31.2232 2.73265 31.3104 2.79925 31.3819 2.88103C31.4534 2.9628 31.5078 3.05809 31.5419 3.16125L34.0606 10.0675C34.1338 10.2701 34.1236 10.4934 34.0321 10.6884C33.9407 10.8834 33.7756 11.0342 33.5731 11.1075C33.4846 11.1396 33.3911 11.1561 33.2969 11.1562C33.1299 11.1562 32.967 11.1047 32.8303 11.0087C32.6937 10.9128 32.5899 10.777 32.5331 10.62ZM49.9856 53.8125C50.0588 54.0151 50.0486 54.2384 49.9571 54.4334C49.8657 54.6284 49.7006 54.7792 49.4981 54.8525C49.4096 54.8846 49.3161 54.9011 49.2219 54.9012C49.0549 54.9012 48.892 54.8497 48.7553 54.7537C48.6187 54.6578 48.5149 54.522 48.4581 54.365L45.9394 47.4588C45.8996 47.3577 45.8804 47.2496 45.883 47.141C45.8857 47.0324 45.9101 46.9255 45.9548 46.8265C45.9995 46.7275 46.0636 46.6384 46.1434 46.5646C46.2231 46.4908 46.3168 46.4338 46.4189 46.3968C46.5211 46.3599 46.6296 46.3438 46.7381 46.3495C46.8466 46.3552 46.9528 46.3827 47.0505 46.4302C47.1482 46.4776 47.2354 46.5443 47.3069 46.626C47.3784 46.7078 47.4328 46.8031 47.4669 46.9062L49.9856 53.8125ZM28.0481 13.1875C28.1165 13.2696 28.1681 13.3644 28.1998 13.4664C28.2315 13.5685 28.2428 13.6758 28.233 13.7822C28.2232 13.8886 28.1925 13.9921 28.1426 14.0866C28.0928 14.1811 28.0248 14.2649 27.9425 14.3331C27.7963 14.4543 27.6123 14.5204 27.4225 14.52C27.3031 14.5202 27.1852 14.4941 27.0771 14.4435C26.9689 14.393 26.8733 14.3192 26.7969 14.2275L22.0519 8.6375C21.9318 8.47091 21.8792 8.26502 21.9048 8.06125C21.9303 7.85747 22.0321 7.67093 22.1896 7.53915C22.3471 7.40737 22.5487 7.34013 22.7538 7.35096C22.9589 7.36178 23.1522 7.44987 23.295 7.5975L28.0481 13.1875ZM53.2356 43.25L57.9481 48.9375C58.0847 49.1018 58.1511 49.3134 58.1328 49.5263C58.1146 49.7392 58.0132 49.9363 57.8506 50.075C57.7056 50.1991 57.5215 50.2681 57.3306 50.27C57.2113 50.2702 57.0933 50.2441 56.9852 50.1935C56.8771 50.143 56.7814 50.0692 56.705 49.9775L51.9762 44.3062C51.9078 44.2241 51.8563 44.1294 51.8246 44.0273C51.7928 43.9253 51.7816 43.8179 51.7914 43.7115C51.8012 43.6051 51.8319 43.5017 51.8817 43.4071C51.9316 43.3126 51.9996 43.2288 52.0819 43.1606C52.2452 43.0231 52.4561 42.9553 52.669 42.972C52.8818 42.9888 53.0795 43.0886 53.2194 43.25H53.2356ZM17.0794 14.5688L23.4412 18.2494C23.5938 18.3398 23.7125 18.4777 23.7793 18.642C23.8461 18.8062 23.8574 18.9878 23.8113 19.1591C23.7653 19.3303 23.6645 19.4818 23.5243 19.5904C23.3842 19.699 23.2123 19.7588 23.035 19.7606C22.8927 19.7616 22.7526 19.7252 22.6287 19.655L16.2669 15.9744C16.1698 15.9236 16.084 15.8537 16.0146 15.7689C15.9452 15.684 15.8937 15.5861 15.8632 15.4808C15.8326 15.3756 15.8237 15.2652 15.8369 15.1565C15.8501 15.0477 15.8852 14.9427 15.9401 14.8478C15.9949 14.7529 16.0684 14.6702 16.156 14.6044C16.2437 14.5387 16.3438 14.4913 16.4502 14.4653C16.5566 14.4392 16.6672 14.4349 16.7754 14.4527C16.8835 14.4705 16.9869 14.51 17.0794 14.5688ZM57.3875 37.8631L63.7494 41.5438C63.9352 41.6509 64.0711 41.8273 64.1274 42.0343C64.1838 42.2413 64.1559 42.4622 64.05 42.6488C63.9969 42.7419 63.9259 42.8235 63.8412 42.8891C63.7564 42.9546 63.6595 43.0028 63.556 43.0307C63.4525 43.0587 63.3446 43.0659 63.2383 43.0519C63.1321 43.0379 63.0296 43.0031 62.9369 42.9494L56.575 39.2769C56.4822 39.2235 56.4008 39.1524 56.3354 39.0676C56.2701 38.9828 56.2221 38.8859 56.1942 38.7826C56.1662 38.6792 56.159 38.5714 56.1727 38.4652C56.1865 38.359 56.221 38.2566 56.2744 38.1637C56.3277 38.0709 56.3988 37.9895 56.4837 37.9242C56.5685 37.8588 56.6653 37.8108 56.7687 37.7829C56.872 37.755 56.9799 37.7477 57.0861 37.7615C57.1922 37.7752 57.2947 37.8098 57.3875 37.8631ZM13.5938 23.2869L20.8331 24.5625C21.0486 24.5808 21.248 24.684 21.3874 24.8493C21.5268 25.0146 21.5949 25.2286 21.5766 25.4441C21.5582 25.6595 21.4551 25.8589 21.2898 25.9984C21.1244 26.1378 20.9105 26.2058 20.695 26.1875H20.5487L13.3094 24.8875C13.2043 24.8689 13.1038 24.8297 13.0139 24.7722C12.9239 24.7148 12.8461 24.6402 12.785 24.5526C12.7239 24.4651 12.6806 24.3664 12.6577 24.2621C12.6347 24.1579 12.6325 24.0501 12.6512 23.945C12.6699 23.8399 12.709 23.7395 12.7665 23.6495C12.824 23.5595 12.8986 23.4817 12.9861 23.4206C13.0736 23.3595 13.1724 23.3162 13.2766 23.2933C13.3809 23.2703 13.4886 23.2682 13.5938 23.2869ZM59.1669 32.9719C58.9514 32.9352 58.7593 32.8145 58.6328 32.6362C58.5063 32.458 58.4559 32.2367 58.4925 32.0212C58.5291 31.8058 58.6499 31.6137 58.8281 31.4872C59.0064 31.3607 59.2276 31.3102 59.4431 31.3469L66.6825 32.6875C66.898 32.7058 67.0974 32.809 67.2368 32.9743C67.3762 33.1396 67.4443 33.3536 67.4259 33.5691C67.4076 33.7845 67.3045 33.9839 67.1391 34.1234C66.9738 34.2628 66.7599 34.3308 66.5444 34.3125H66.4062L59.1669 32.9719ZM12.6512 33.5894C12.6252 33.3822 12.6798 33.173 12.8039 33.0051C12.9279 32.8372 13.1118 32.7234 13.3175 32.6875L20.5569 31.4119C20.7724 31.3752 20.9936 31.4257 21.1719 31.5522C21.3501 31.6786 21.4709 31.8708 21.5075 32.0862C21.5441 32.3017 21.4937 32.523 21.3672 32.7012C21.2407 32.8795 21.0486 33.0002 20.8331 33.0369L13.5938 34.2475H13.4556C13.2658 34.2491 13.0814 34.1841 12.9344 34.0639C12.7875 33.9436 12.6873 33.7758 12.6512 33.5894ZM67.3488 23.945C67.3675 24.0501 67.3653 24.1579 67.3423 24.2621C67.3194 24.3664 67.2761 24.4651 67.215 24.5526C67.1539 24.6402 67.0761 24.7148 66.9861 24.7722C66.8962 24.8297 66.7957 24.8689 66.6906 24.8875L59.4431 26.1875H59.305C59.0895 26.2058 58.8756 26.1378 58.7103 25.9984C58.5449 25.8589 58.4418 25.6595 58.4234 25.4441C58.4051 25.2286 58.4732 25.0146 58.6126 24.8493C58.752 24.684 58.9514 24.5808 59.1669 24.5625L66.4062 23.2869C66.5114 23.2682 66.6191 23.2703 66.7234 23.2933C66.8276 23.3162 66.9264 23.3595 67.0139 23.4206C67.1014 23.4817 67.176 23.5595 67.2335 23.6495C67.291 23.7395 67.3301 23.8399 67.3488 23.945ZM23.75 38.1637C23.8037 38.2565 23.8386 38.3589 23.8525 38.4652C23.8665 38.5714 23.8593 38.6794 23.8313 38.7829C23.8034 38.8863 23.7553 38.9833 23.6897 39.068C23.6242 39.1528 23.5425 39.2238 23.4494 39.2769L17.0875 42.9494C16.9948 43.0031 16.8923 43.0379 16.7861 43.0519C16.6798 43.0659 16.5718 43.0587 16.4684 43.0307C16.3649 43.0028 16.268 42.9546 16.1832 42.8891C16.0984 42.8235 16.0275 42.7419 15.9744 42.6488C15.8684 42.4622 15.8406 42.2413 15.8969 42.0343C15.9532 41.8273 16.0892 41.6509 16.275 41.5438L22.6369 37.8631C22.7296 37.8094 22.8321 37.7746 22.9383 37.7606C23.0446 37.7466 23.1525 37.7538 23.256 37.7818C23.3595 37.8097 23.4564 37.8579 23.5412 37.9234C23.6259 37.989 23.6969 38.0706 23.75 38.1637ZM64.05 14.8856C64.1559 15.0722 64.1838 15.2931 64.1274 15.5001C64.0711 15.7071 63.9352 15.8834 63.7494 15.9906L57.3875 19.6875C57.2637 19.7577 57.1236 19.7941 56.9813 19.7931C56.8039 19.7913 56.6321 19.7315 56.4919 19.6229C56.3517 19.5143 56.2509 19.3628 56.2049 19.1916C56.1589 19.0203 56.1701 18.8387 56.2369 18.6745C56.3038 18.5102 56.4225 18.3723 56.575 18.2819L62.9369 14.6012C63.1222 14.4914 63.3436 14.4596 63.5523 14.513C63.7611 14.5663 63.9401 14.7003 64.05 14.8856ZM22.0519 48.9375L26.7725 43.25C26.8408 43.1678 26.9246 43.0999 27.0191 43.0502C27.1136 43.0004 27.2171 42.9697 27.3234 42.9599C27.4298 42.9501 27.5371 42.9614 27.6391 42.993C27.7412 43.0247 27.836 43.0761 27.9181 43.1444C28.0003 43.2127 28.0682 43.2965 28.118 43.391C28.1677 43.4855 28.1984 43.5889 28.2082 43.6953C28.218 43.8017 28.2068 43.909 28.1751 44.011C28.1435 44.113 28.092 44.2078 28.0237 44.29L23.295 49.9206C23.2186 50.0123 23.1229 50.0861 23.0148 50.1367C22.9067 50.1872 22.7887 50.2133 22.6694 50.2131C22.4785 50.2112 22.2944 50.1422 22.1494 50.0181C22.0028 49.8817 21.9118 49.6959 21.8938 49.4965C21.8758 49.297 21.9321 49.098 22.0519 48.9375ZM57.875 7.5C58.0376 7.63869 58.139 7.83583 58.1572 8.04874C58.1755 8.26165 58.1091 8.47317 57.9725 8.6375L53.2438 14.2681C53.1682 14.3588 53.0739 14.4319 52.9672 14.4824C52.8606 14.533 52.7442 14.5596 52.6263 14.5606C52.4364 14.561 52.2524 14.4949 52.1063 14.3737C52.024 14.3055 51.956 14.2218 51.9061 14.1272C51.8563 14.0327 51.8256 13.9293 51.8158 13.8229C51.8059 13.7164 51.8172 13.6091 51.8489 13.5071C51.8807 13.405 51.9322 13.3102 52.0006 13.2281L56.7294 7.5975C56.7982 7.51582 56.8824 7.4485 56.9772 7.39938C57.072 7.35027 57.1756 7.32033 57.282 7.31127C57.3884 7.30222 57.4955 7.31423 57.5973 7.34661C57.699 7.37899 57.7934 7.43112 57.875 7.5ZM34.0606 47.4669L31.5419 54.3731C31.4851 54.5302 31.3813 54.6659 31.2447 54.7618C31.108 54.8578 30.9451 54.9093 30.7781 54.9094C30.6839 54.9093 30.5904 54.8928 30.5019 54.8606C30.2994 54.7873 30.1343 54.6365 30.0429 54.4415C29.9514 54.2465 29.9412 54.0232 30.0144 53.8206L32.5331 46.9144C32.5672 46.8112 32.6216 46.7159 32.6931 46.6342C32.7646 46.5524 32.8518 46.4858 32.9495 46.4383C33.0472 46.3908 33.1534 46.3634 33.2619 46.3576C33.3704 46.3519 33.4789 46.368 33.5811 46.405C33.6832 46.4419 33.7769 46.499 33.8566 46.5728C33.9364 46.6466 34.0005 46.7356 34.0452 46.8346C34.0899 46.9336 34.1143 47.0406 34.117 47.1492C34.1196 47.2578 34.1004 47.3658 34.0606 47.4669ZM46.4269 11.1075C46.2244 11.0342 46.0593 10.8834 45.9679 10.6884C45.8764 10.4934 45.8662 10.2701 45.9394 10.0675L48.4581 3.16125C48.4922 3.05809 48.5466 2.9628 48.6181 2.88103C48.6896 2.79925 48.7768 2.73265 48.8745 2.68515C48.9722 2.63766 49.0784 2.61024 49.1869 2.60452C49.2954 2.59879 49.4039 2.61488 49.5061 2.65183C49.6082 2.68878 49.7019 2.74584 49.7816 2.81964C49.8614 2.89344 49.9255 2.98247 49.9702 3.08148C50.0149 3.18048 50.0393 3.28745 50.042 3.39605C50.0446 3.50465 50.0255 3.61268 49.9856 3.71375L47.4669 10.62C47.4101 10.777 47.3063 10.9128 47.1697 11.0087C47.033 11.1047 46.8701 11.1562 46.7031 11.1562C46.6089 11.1561 46.5154 11.1396 46.4269 11.1075ZM16.7381 50.4406C16.9536 50.4406 17.1603 50.5262 17.3126 50.6786C17.465 50.831 17.5506 51.0376 17.5506 51.2531C17.5506 51.4686 17.465 51.6753 17.3126 51.8276C17.1603 51.98 16.9536 52.0656 16.7381 52.0656C14.9803 52.0677 13.2947 52.7653 12.0495 54.006C10.8042 55.2467 10.1005 56.9297 10.0919 58.6875C10.0919 58.903 10.0063 59.1097 9.8539 59.262C9.70153 59.4144 9.49486 59.5 9.27938 59.5C9.06389 59.5 8.85722 59.4144 8.70485 59.262C8.55248 59.1097 8.46688 58.903 8.46688 58.6875C8.45828 56.9283 7.75341 55.2441 6.5064 54.0031C5.25939 52.7622 3.57173 52.0656 1.8125 52.0656C1.59701 52.0656 1.39035 51.98 1.23798 51.8276C1.0856 51.6753 1 51.4686 1 51.2531C1 51.0376 1.0856 50.831 1.23798 50.6786C1.39035 50.5262 1.59701 50.4406 1.8125 50.4406C3.37204 50.4406 4.8998 50.8815 6.21953 51.7125C7.53926 52.5434 8.59719 53.7305 9.27125 55.1369C9.94591 53.7293 11.0051 52.5413 12.3264 51.7103C13.6477 50.8793 15.1772 50.4391 16.7381 50.4406ZM78.9919 51.2531C78.9919 51.4686 78.9063 51.6753 78.7539 51.8276C78.6015 51.98 78.3949 52.0656 78.1794 52.0656C76.4215 52.0677 74.736 52.7653 73.4907 54.006C72.2455 55.2467 71.5417 56.9297 71.5331 58.6875C71.5331 58.903 71.4475 59.1097 71.2952 59.262C71.1428 59.4144 70.9361 59.5 70.7206 59.5C70.5051 59.5 70.2985 59.4144 70.1461 59.262C69.9937 59.1097 69.9081 58.903 69.9081 58.6875C69.906 56.9255 69.2051 55.2362 67.9591 53.9903C66.7132 52.7443 65.0239 52.0434 63.2619 52.0412C63.0464 52.0412 62.8397 51.9556 62.6873 51.8033C62.535 51.6509 62.4494 51.4442 62.4494 51.2287C62.4494 51.0133 62.535 50.8066 62.6873 50.6542C62.8397 50.5019 63.0464 50.4162 63.2619 50.4162C64.8214 50.4162 66.3492 50.8572 67.6689 51.6881C68.9886 52.519 70.0466 53.7062 70.7206 55.1125C71.3987 53.7095 72.4594 52.5265 73.7805 51.7C75.1015 50.8734 76.6292 50.4369 78.1875 50.4406C78.403 50.4406 78.6096 50.5262 78.762 50.6786C78.9144 50.831 79 51.0376 79 51.2531H78.9919ZM14.5119 60.8406C16.0721 60.8423 17.6 61.2848 18.9197 62.1172C20.2393 62.9495 21.2969 64.1377 21.9706 65.545C22.6449 64.1365 23.7038 62.9474 25.025 62.115C26.3462 61.2826 27.8759 60.8408 29.4375 60.8406C29.653 60.8406 29.8597 60.9262 30.012 61.0786C30.1644 61.231 30.25 61.4376 30.25 61.6531C30.25 61.8686 30.1644 62.0753 30.012 62.2276C29.8597 62.38 29.653 62.4656 29.4375 62.4656C27.6755 62.4678 25.9862 63.1687 24.7403 64.4146C23.4943 65.6606 22.7934 67.3498 22.7913 69.1119C22.7913 69.3274 22.7056 69.534 22.5533 69.6864C22.4009 69.8388 22.1942 69.9244 21.9788 69.9244C21.7633 69.9244 21.5566 69.8388 21.4042 69.6864C21.2519 69.534 21.1663 69.3274 21.1663 69.1119C21.1641 67.3498 20.4632 65.6606 19.2172 64.4146C17.9713 63.1687 16.282 62.4678 14.52 62.4656C14.3045 62.4656 14.0978 62.38 13.9455 62.2276C13.7931 62.0753 13.7075 61.8686 13.7075 61.6531C13.7075 61.4376 13.7931 61.231 13.9455 61.0786C14.0978 60.9262 14.3045 60.8406 14.52 60.8406H14.5119ZM50.5706 60.8406C52.1306 60.8433 53.6582 61.2862 54.9776 62.1184C56.2971 62.9506 57.3549 64.1383 58.0294 65.545C58.7031 64.1377 59.7607 62.9495 61.0803 62.1172C62.4 61.2848 63.9279 60.8423 65.4881 60.8406C65.7036 60.8406 65.9103 60.9262 66.0627 61.0786C66.215 61.231 66.3006 61.4376 66.3006 61.6531C66.3006 61.8686 66.215 62.0753 66.0627 62.2276C65.9103 62.38 65.7036 62.4656 65.4881 62.4656C63.7261 62.4678 62.0368 63.1687 60.7909 64.4146C59.5449 65.6606 58.844 67.3498 58.8419 69.1119C58.8419 69.3274 58.7563 69.534 58.6039 69.6864C58.4515 69.8388 58.2449 69.9244 58.0294 69.9244C57.8139 69.9244 57.6072 69.8388 57.4549 69.6864C57.3025 69.534 57.2169 69.3274 57.2169 69.1119C57.2147 67.3484 56.5127 65.658 55.265 64.4118C54.0173 63.1656 52.3259 62.4656 50.5625 62.4656C50.347 62.4656 50.1403 62.38 49.988 62.2276C49.8356 62.0753 49.75 61.8686 49.75 61.6531C49.75 61.4376 49.8356 61.231 49.988 61.0786C50.1403 60.9262 50.347 60.8406 50.5625 60.8406H50.5706ZM40 74.6125C40.6741 73.2062 41.732 72.019 43.0517 71.1881C44.3715 70.3572 45.8992 69.9163 47.4588 69.9163C47.6742 69.9163 47.8809 70.0019 48.0333 70.1542C48.1856 70.3066 48.2713 70.5133 48.2713 70.7288C48.2713 70.9442 48.1856 71.1509 48.0333 71.3033C47.8809 71.4557 47.6742 71.5413 47.4588 71.5413C45.6967 71.5434 44.0075 72.2443 42.7615 73.4903C41.5156 74.7362 40.8147 76.4255 40.8125 78.1875C40.8125 78.403 40.7269 78.6096 40.5745 78.762C40.4222 78.9144 40.2155 79 40 79C39.7845 79 39.5778 78.9144 39.4255 78.762C39.2731 78.6096 39.1875 78.403 39.1875 78.1875C39.1853 76.4255 38.4844 74.7362 37.2385 73.4903C35.9925 72.2443 34.3033 71.5434 32.5413 71.5413C32.3258 71.5413 32.1191 71.4557 31.9667 71.3033C31.8144 71.1509 31.7288 70.9442 31.7288 70.7288C31.7288 70.5133 31.8144 70.3066 31.9667 70.1542C32.1191 70.0019 32.3258 69.9163 32.5413 69.9163C34.1008 69.9163 35.6285 70.3572 36.9483 71.1881C38.268 72.019 39.3259 73.2062 40 74.6125Z" stroke="#CC9933" stroke-width="0.4" mask="url(#path-1-outside-1_898_3291)"/>
</svg>
