<svg width="31" height="31" viewBox="0 0 31 31" fill="none" xmlns="http://www.w3.org/2000/svg">
<path d="M25.34 27.4479C25.34 22.7953 20.1527 19.0133 15.5001 19.0133C10.8475 19.0133 5.66016 22.7953 5.66016 27.4479M15.5001 14.7973C16.9913 14.7973 18.4214 14.205 19.4759 13.1505C20.5303 12.0961 21.1227 10.6659 21.1227 9.17472C21.1227 7.68351 20.5303 6.25337 19.4759 5.19892C18.4214 4.14448 16.9913 3.55209 15.5001 3.55209C14.0089 3.55209 12.5787 4.14448 11.5243 5.19892C10.4698 6.25337 9.87745 7.68351 9.87745 9.17472C9.87745 10.6659 10.4698 12.0961 11.5243 13.1505C12.5787 14.205 14.0089 14.7973 15.5001 14.7973Z" stroke="#CC9933" stroke-width="2" stroke-linecap="round" stroke-linejoin="round"/>
</svg>
